<svg viewBox="0 0 64 64" fill="none" xmlns="http://www.w3.org/2000/svg">
<rect width="64" height="64" rx="32" fill="url(#paint0_linear_26_34)"/>
<rect x="14" y="14" width="36" height="36" rx="8" fill="#D9D9D9"/>
<path d="M31.5064 43.32C29.5224 43.32 27.8584 43.032 26.5144 42.456C25.1917 41.8587 24.1784 41.0907 23.4744 40.152C22.7917 39.192 22.429 38.1893 22.3864 37.144C22.3864 36.952 22.4504 36.792 22.5784 36.664C22.7064 36.536 22.8664 36.472 23.0584 36.472H25.9064C26.1837 36.472 26.3864 36.536 26.5144 36.664C26.6637 36.7707 26.7917 36.9093 26.8984 37.08C27.0264 37.4853 27.2717 37.8907 27.6344 38.296C27.997 38.68 28.4877 39 29.1064 39.256C29.7464 39.512 30.5464 39.64 31.5064 39.64C33.0424 39.64 34.1837 39.384 34.9304 38.872C35.6984 38.36 36.0824 37.6667 36.0824 36.792C36.0824 36.1733 35.8797 35.6827 35.4744 35.32C35.069 34.936 34.4397 34.5947 33.5864 34.296C32.7544 33.976 31.645 33.6453 30.2584 33.304C28.6584 32.92 27.3144 32.4613 26.2264 31.928C25.1597 31.3733 24.349 30.68 23.7944 29.848C23.261 29.016 22.9944 27.96 22.9944 26.68C22.9944 25.4427 23.325 24.344 23.9864 23.384C24.669 22.424 25.629 21.6667 26.8664 21.112C28.125 20.5573 29.6184 20.28 31.3464 20.28C32.733 20.28 33.9597 20.472 35.0264 20.856C36.093 21.2187 36.9784 21.7093 37.6824 22.328C38.3864 22.9253 38.9197 23.576 39.2824 24.28C39.6664 24.9627 39.869 25.6347 39.8904 26.296C39.8904 26.4667 39.8264 26.6267 39.6984 26.776C39.5917 26.904 39.4317 26.968 39.2184 26.968H36.2424C36.0717 26.968 35.901 26.9253 35.7304 26.84C35.5597 26.7547 35.421 26.5947 35.3144 26.36C35.1864 25.6987 34.7704 25.1333 34.0664 24.664C33.3624 24.1947 32.4557 23.96 31.3464 23.96C30.1944 23.96 29.2664 24.1733 28.5624 24.6C27.8584 25.0267 27.5064 25.688 27.5064 26.584C27.5064 27.1813 27.677 27.6827 28.0184 28.088C28.381 28.472 28.9464 28.8133 29.7144 29.112C30.5037 29.4107 31.5384 29.7307 32.8184 30.072C34.6317 30.4773 36.1144 30.9467 37.2664 31.48C38.4184 32.0133 39.261 32.696 39.7944 33.528C40.3277 34.3387 40.5944 35.3733 40.5944 36.632C40.5944 38.04 40.2104 39.2453 39.4424 40.248C38.6957 41.2293 37.6397 41.9867 36.2744 42.52C34.909 43.0533 33.3197 43.32 31.5064 43.32Z" fill="url(#paint1_linear_26_34)"/>
<defs>
<linearGradient id="paint0_linear_26_34" x1="9" y1="54" x2="54.5" y2="10" gradientUnits="userSpaceOnUse">
<stop stop-color="#4158D0"/>
<stop offset="1" stop-color="#C850C0"/>
</linearGradient>
<linearGradient id="paint1_linear_26_34" x1="31.5" y1="13" x2="31.5" y2="51" gradientUnits="userSpaceOnUse">
<stop stop-color="#4158D0"/>
<stop offset="1" stop-color="#C850C0"/>
</linearGradient>
</defs>
</svg>
