<svg viewBox="0 0 500 500" fill="none" xmlns="http://www.w3.org/2000/svg">
<path d="M386.26 236.4C363.59 232.63 339.36 239.17 317.91 230.97C298.84 223.68 285.73 206.03 276.27 187.97C266.81 169.91 259.81 150.33 247.55 133.97C223.31 101.75 179.49 86.55 139.85 94C100.21 101.45 65.85 130.15 48.65 166.62C31.45 203.09 30.72 246.45 43.84 284.6C56.96 322.75 83.22 355.73 115.63 379.75C147.19 408.33 222.29 432.68 263.92 434.92C304.46 437.1 353.81 439.55 389.92 420.99C426.03 402.43 453.59 365.24 454.63 324.66C455.67 284.08 426.3 243.06 386.26 236.4Z" class="bg"/>
<path d="M401.49 452.87C401.276 452.85 401.064 452.807 400.86 452.74C400.45 452.64 399.86 452.44 399.08 452.27C393.632 450.95 387.975 450.729 382.44 451.62C375.642 452.806 369.253 455.689 363.865 460.001C358.478 464.314 354.266 469.916 351.62 476.29C351.29 477.02 351.11 477.61 350.94 478C350.868 478.203 350.781 478.4 350.68 478.59C350.71 478.378 350.764 478.17 350.84 477.97C350.97 477.57 351.13 476.97 351.43 476.22C352.239 474.092 353.243 472.043 354.43 470.1C358.297 463.616 363.926 458.363 370.663 454.953C377.399 451.544 384.965 450.117 392.48 450.84C394.744 451.042 396.984 451.457 399.17 452.08C399.95 452.27 400.53 452.51 400.93 452.64C401.123 452.7 401.311 452.777 401.49 452.87Z" fill="#263238"/>
<path d="M398.05 451.33C396.262 453.352 395.057 455.823 394.566 458.478C394.074 461.133 394.314 463.871 395.26 466.4C395.65 467.4 396.36 468.48 397.43 468.49C398.5 468.5 399.28 467.28 399.65 466.2C400.4 463.929 400.676 461.528 400.461 459.145C400.246 456.763 399.544 454.45 398.4 452.35C399.897 456.007 402.444 459.139 405.72 461.35C406.96 462.18 408.72 462.86 409.88 461.97C411.04 461.08 410.93 459.33 410.45 457.97C409.555 455.62 407.932 453.618 405.818 452.256C403.704 450.894 401.21 450.244 398.7 450.4C400.946 450.565 403.189 450.04 405.13 448.897C407.07 447.753 408.616 446.045 409.56 444C410.24 442.41 410.31 440.16 408.78 439.36C408.293 439.182 407.773 439.11 407.255 439.15C406.737 439.189 406.235 439.339 405.78 439.59C403.91 440.4 402.238 441.607 400.879 443.126C399.52 444.645 398.507 446.441 397.91 448.39C398.871 446.176 399.166 443.73 398.757 441.352C398.348 438.974 397.255 436.766 395.61 435C394.54 433.89 393.01 432.94 391.53 433.37C389.67 433.91 389.05 436.26 389.1 438.2C389.189 440.626 389.82 443.001 390.949 445.151C392.077 447.3 393.673 449.169 395.62 450.62C394.362 449.811 392.926 449.321 391.437 449.192C389.947 449.063 388.448 449.299 387.07 449.88C385.27 450.65 383.59 452.63 384.39 454.41C385.19 456.19 387.53 456.27 389.39 455.93C392.742 455.301 395.911 453.935 398.67 451.93" fill="url(#paint0_linear_73_3)"/>
<path d="M363.63 459.21C366.435 462.697 369.969 465.53 373.983 467.509C377.997 469.489 382.395 470.567 386.87 470.67C386.72 468.67 385.17 467.17 383.61 465.98C377.975 461.705 371.072 459.438 364 459.54" fill="#455A64"/>
<path d="M397.12 461.92C397.555 460.011 397.873 458.078 398.07 456.13C398.093 454.173 397.999 452.216 397.79 450.27C399.089 454.093 398.848 458.271 397.12 461.92Z" fill="#263238"/>
<path d="M404.61 457.74C403.767 456.4 402.792 455.147 401.7 454C399.78 452.19 397.81 451.21 397.9 451.06C399.473 451.565 400.901 452.443 402.06 453.62C403.322 454.691 404.214 456.133 404.61 457.74Z" fill="#263238"/>
<path d="M404.24 444.64C403.84 446.164 403.027 447.549 401.89 448.64C400.86 449.868 399.454 450.722 397.89 451.07C399.189 450.271 400.4 449.336 401.5 448.28C402.475 447.114 403.389 445.899 404.24 444.64Z" fill="#263238"/>
<path d="M398 448.82C398.359 448.792 398.718 448.872 399.032 449.049C399.345 449.226 399.599 449.493 399.76 449.815C399.921 450.137 399.982 450.5 399.936 450.857C399.89 451.214 399.738 451.55 399.5 451.82C399.05 451.464 398.543 451.187 398 451C398.105 450.277 398.105 449.543 398 448.82Z" fill="#FAFAFA"/>
<path d="M392.68 438.21C393.238 438.646 393.718 439.174 394.1 439.77C396.122 442.53 397.35 445.792 397.65 449.2C397.778 449.894 397.778 450.606 397.65 451.3C397.358 448.96 396.832 446.655 396.08 444.42C395.148 442.246 394.009 440.167 392.68 438.21Z" fill="#263238"/>
<path d="M38.34 440.82C39.414 440.831 40.4749 441.058 41.4593 441.487C42.4438 441.917 43.3316 442.54 44.07 443.32C45.5318 444.9 46.6157 446.79 47.24 448.85C48.55 452.78 48.19 457.54 47.24 461.59C42.82 460.3 39.86 455.85 38.51 453.5C36.37 449.78 34.75 441.76 38.29 440.82" fill="url(#paint1_linear_73_3)"/>
<path d="M53.81 466.05C53.1004 465.081 52.6592 463.942 52.531 462.748C52.4028 461.554 52.5922 460.347 53.08 459.25C53.5849 458.162 54.3024 457.185 55.1903 456.378C56.0782 455.571 57.1185 454.949 58.25 454.55C58.7526 454.316 59.3005 454.194 59.855 454.194C60.4095 454.194 60.9574 454.316 61.46 454.55C61.8904 454.837 62.2361 455.235 62.4611 455.701C62.6862 456.167 62.7825 456.684 62.74 457.2C62.6321 458.21 62.2634 459.175 61.67 460C59.74 463 57.32 465.5 53.81 466" fill="url(#paint2_linear_73_3)"/>
<path d="M55.1 479.38C54.9972 479.114 54.9169 478.84 54.86 478.56C54.71 477.98 54.51 477.22 54.28 476.31C53.5395 473.84 53.2018 471.267 53.28 468.69C53.4287 466.097 54.2601 463.589 55.69 461.42C56.1368 460.778 56.6532 460.188 57.23 459.66C57.43 459.47 57.61 459.35 57.72 459.26C57.83 459.17 57.9 459.13 57.91 459.14C57.1637 459.87 56.4936 460.674 55.91 461.54C54.556 463.7 53.7684 466.166 53.62 468.71C53.5332 471.255 53.8196 473.798 54.47 476.26C54.69 477.26 54.86 478 54.96 478.54C55.0364 478.814 55.0833 479.096 55.1 479.38Z" fill="#263238"/>
<path d="M40.1 446.82C40.1813 446.913 40.2486 447.018 40.3 447.13L40.8 448.07C41.24 448.89 41.85 450.07 42.59 451.55C44.08 454.5 46.08 458.6 48.19 463.18C50.3 467.76 52.11 472 53.38 475C54.01 476.52 54.51 477.76 54.85 478.62C55.01 479.03 55.13 479.36 55.23 479.62C55.2853 479.734 55.3256 479.855 55.35 479.98C55.2815 479.877 55.2245 479.766 55.18 479.65C55.06 479.4 54.92 479.07 54.74 478.65C54.36 477.76 53.83 476.55 53.18 475.06C51.86 472.06 50.02 467.86 47.92 463.28C45.82 458.7 43.84 454.59 42.4 451.62C41.7 450.16 41.12 448.97 40.7 448.1C40.5066 447.713 40.3566 447.38 40.25 447.1C40.195 447.009 40.1449 446.916 40.1 446.82Z" fill="#263238"/>
<path d="M49.43 470.86C47.9943 468.776 46.0846 467.061 43.8577 465.858C41.6308 464.656 39.1503 463.998 36.62 463.94C35.33 463.94 33.81 464.24 33.3 465.42C32.79 466.6 33.65 467.92 34.58 468.81C36.5539 470.636 39.0237 471.836 41.6785 472.262C44.3333 472.687 47.0546 472.318 49.5 471.2" fill="url(#paint3_linear_73_3)"/>
<path d="M38.77 467.25C39.0393 467.222 39.3107 467.222 39.58 467.25C39.8929 467.228 40.207 467.228 40.52 467.25C40.88 467.3 41.3 467.31 41.76 467.41C42.2585 467.487 42.7526 467.59 43.24 467.72C43.8025 467.862 44.3567 468.036 44.9 468.24C46.1476 468.712 47.3384 469.323 48.45 470.06C49.5497 470.816 50.5567 471.699 51.45 472.69C51.8355 473.122 52.1961 473.577 52.53 474.05C52.8295 474.459 53.1033 474.887 53.35 475.33C53.5624 475.69 53.7559 476.06 53.93 476.44C54.0725 476.718 54.1962 477.005 54.3 477.3C54.4144 477.546 54.5016 477.805 54.56 478.07C54.5 478.07 54.12 477.01 53.17 475.44C52.92 475.05 52.66 474.62 52.33 474.2C51.9913 473.74 51.6274 473.3 51.24 472.88C50.3415 471.911 49.3349 471.049 48.24 470.31C47.1534 469.581 45.9897 468.974 44.77 468.5C44.2365 468.292 43.6924 468.111 43.14 467.96C42.62 467.8 42.14 467.71 41.68 467.61C39.92 467.3 38.77 467.31 38.77 467.25Z" fill="#263238"/>
<path d="M323.77 480.07H350.95L389.94 291.29L363.88 285.9L323.77 480.07Z" fill="#455A64"/>
<path d="M440.83 420.26L276.63 386.34L271.98 382.17L289.34 324.83L296.96 325.33L285.21 319.07L291.93 285.56L456.13 319.48L460.79 323.66L453.98 356.62L440.97 356.86L448.13 358.23L452.78 362.4L440.83 420.26Z" fill="#263238"/>
<path d="M436.18 416.09L271.98 382.17L284.69 320.65L292.31 321.15L285.95 314.54L291.93 285.56L456.13 319.48L449.32 352.44L436.32 352.68L448.13 358.23L436.18 416.09Z" fill="#455A64"/>
<path d="M439.83 352.34C439.83 352.34 439.7 352.34 439.44 352.34L438.29 352.26L433.87 351.9L430.68 351.62L426.89 351.17C424.18 350.83 421.07 350.51 417.68 349.95L412.33 349.14C410.47 348.85 408.55 348.47 406.56 348.14C402.56 347.46 398.33 346.57 393.87 345.67C384.96 343.78 375.21 341.49 365.03 338.9C344.68 333.66 326.34 328.62 312.96 325.35C309.63 324.5 306.59 323.81 303.96 323.17C301.33 322.53 298.96 322.01 297.12 321.6L292.8 320.6L291.68 320.33C291.55 320.301 291.423 320.261 291.3 320.21C291.432 320.215 291.563 320.236 291.69 320.27L292.83 320.48L297.17 321.35C299.06 321.73 301.37 322.22 304.03 322.83C306.69 323.44 309.74 324.1 313.09 324.92C326.49 328.08 344.86 333.06 365.2 338.29C375.38 340.88 385.11 343.19 394 345.11C398.46 346.02 402.68 346.93 406.67 347.63C408.67 347.99 410.58 348.37 412.43 348.63L417.76 349.48C421.15 350.07 424.24 350.42 426.95 350.79L430.73 351.29L433.91 351.62L438.32 352.1L439.46 352.24L439.83 352.34Z" fill="#263238"/>
<path d="M448.08 347.09C447.952 347.018 447.828 346.938 447.71 346.85L446.71 346.1C445.8 345.45 444.5 344.42 442.71 343.2C437.781 339.742 432.645 336.589 427.33 333.76C419.439 329.591 411.181 326.156 402.66 323.5C392.215 320.291 381.433 318.305 370.53 317.58C358.92 316.73 347.84 317.86 337.75 318.09C332.965 318.259 328.174 318.162 323.4 317.8C313.207 316.961 303.209 314.528 293.77 310.59C291.77 309.76 290.3 309.06 289.29 308.59L288.15 308.01L287.77 307.8C287.913 307.837 288.05 307.891 288.18 307.96L289.35 308.48C290.35 308.94 291.88 309.61 293.86 310.4C299.448 312.639 305.224 314.376 311.12 315.59C315.186 316.426 319.301 317.007 323.44 317.33C328.196 317.661 332.966 317.738 337.73 317.56C347.79 317.3 358.9 316.15 370.57 317C381.521 317.73 392.349 319.744 402.83 323C411.373 325.697 419.645 329.186 427.54 333.42C432.848 336.274 437.962 339.474 442.85 343C444.58 344.24 445.85 345.31 446.75 346L447.75 346.8C447.867 346.888 447.978 346.985 448.08 347.09Z" fill="#263238"/>
<path d="M368.71 303C368.463 303.115 368.205 303.205 367.94 303.27L365.69 303.94C364.69 304.24 363.52 304.57 362.11 304.89C360.7 305.21 359.11 305.65 357.31 305.97C355.51 306.29 353.57 306.72 351.44 306.97C349.31 307.22 347.05 307.57 344.66 307.84C339.456 308.343 334.227 308.547 329 308.45C323.773 308.311 318.559 307.88 313.38 307.16C311 306.78 308.74 306.45 306.64 305.99C304.54 305.53 302.64 305.13 300.83 304.69C299.02 304.25 297.48 303.8 296.09 303.4C294.7 303 293.51 302.63 292.55 302.3L290.33 301.53C290.069 301.451 289.815 301.351 289.57 301.23C289.842 301.262 290.11 301.322 290.37 301.41L292.62 302.07C293.62 302.37 294.78 302.72 296.18 303.07C297.58 303.42 299.18 303.9 300.93 304.27C302.68 304.64 304.64 305.12 306.74 305.49C308.84 305.86 311.09 306.24 313.46 306.6C318.615 307.284 323.802 307.694 329 307.83C334.203 307.922 339.407 307.735 344.59 307.27C346.97 307.01 349.24 306.8 351.35 306.46C353.46 306.12 355.42 305.83 357.21 305.46C359 305.09 360.6 304.77 362.01 304.46C363.42 304.15 364.63 303.87 365.61 303.61L367.88 303.06C368.154 303.009 368.432 302.989 368.71 303Z" fill="#263238"/>
<path d="M325 361.66C325 361.66 325.26 361.8 325.74 362.1L327.9 363.43C329.8 364.58 332.58 366.34 336.3 368.33C340.783 370.821 345.588 372.682 350.58 373.86C352.086 374.195 353.613 374.429 355.15 374.56C356.759 374.761 358.388 374.408 359.77 373.56C360.441 373.067 360.927 372.362 361.15 371.56C361.367 370.731 361.367 369.859 361.15 369.03C360.626 367.296 359.512 365.799 358 364.8C345.48 356.5 327.85 350.45 307.9 349.89C305.41 349.81 302.9 349.81 300.34 349.89C297.78 349.97 295.18 350.57 293.47 352.47C293.038 352.918 292.7 353.448 292.475 354.028C292.25 354.609 292.143 355.228 292.16 355.85C292.253 357.121 292.743 358.332 293.56 359.31C295.17 361.37 297.49 362.8 299.72 364.31C308.72 370.41 318.25 376.47 328.97 380.67C339.69 384.87 351.08 386.76 361.81 385.17C364.457 384.778 367.067 384.163 369.61 383.33C372.115 382.622 374.362 381.205 376.08 379.25C377.616 377.216 378.429 374.728 378.39 372.18C378.397 369.682 377.843 367.215 376.77 364.96C374.588 360.633 371.243 357 367.11 354.47C363.219 352.065 358.998 350.243 354.58 349.06C350.33 347.83 346.12 346.95 342.1 346.06L330.53 343.44L295.62 335.51L286.14 333.32L283.68 332.74C283.12 332.61 282.84 332.52 282.84 332.52L283.69 332.68L286.17 333.2L295.68 335.28L330.63 343.02L342.2 345.6C346.2 346.51 350.44 347.37 354.72 348.6C359.191 349.786 363.463 351.622 367.4 354.05C371.626 356.626 375.048 360.332 377.28 364.75C378.39 367.08 378.964 369.629 378.96 372.21C379.005 374.887 378.153 377.503 376.54 379.64C374.753 381.687 372.412 383.173 369.8 383.92C367.223 384.773 364.576 385.399 361.89 385.79C351.03 387.41 339.5 385.48 328.75 381.27C318 377.06 308.4 371 299.42 364.87C297.2 363.33 294.84 361.87 293.14 359.7C292.242 358.627 291.706 357.296 291.61 355.9C291.592 355.202 291.713 354.508 291.966 353.858C292.218 353.207 292.597 352.613 293.08 352.11C294.006 351.12 295.174 350.389 296.47 349.99C297.727 349.611 299.028 349.396 300.34 349.35C302.92 349.25 305.45 349.26 307.95 349.35C328.02 349.96 345.7 356.06 358.3 364.48C359.887 365.542 361.051 367.128 361.59 368.96C361.825 369.858 361.825 370.802 361.59 371.7C361.344 372.58 360.804 373.349 360.06 373.88C358.605 374.778 356.888 375.155 355.19 374.95C353.633 374.806 352.086 374.562 350.56 374.22C345.55 373.007 340.734 371.102 336.25 368.56C332.53 366.56 329.77 364.74 327.89 363.56C326.97 362.97 326.26 362.56 325.77 362.18C325.28 361.8 325 361.66 325 361.66Z" fill="#263238"/>
<path d="M444.89 372.33C444.552 372.293 444.218 372.23 443.89 372.14C443.27 371.97 442.34 371.79 441.15 371.58C437.752 371.094 434.3 371.121 430.91 371.66C425.893 372.504 421.025 374.074 416.46 376.32C410.905 379.154 405.54 382.348 400.4 385.88C395.232 389.432 389.814 392.607 384.19 395.38C379.551 397.59 374.6 399.073 369.51 399.78C366.074 400.242 362.585 400.144 359.18 399.49C358.259 399.307 357.351 399.067 356.46 398.77C356.143 398.685 355.835 398.572 355.54 398.43C355.862 398.48 356.179 398.554 356.49 398.65C357.11 398.83 358.03 399.03 359.22 399.26C362.605 399.813 366.055 399.844 369.45 399.35C374.481 398.592 379.369 397.082 383.95 394.87C389.533 392.08 394.916 388.906 400.06 385.37C405.225 381.823 410.624 378.629 416.22 375.81C420.84 373.559 425.771 372.015 430.85 371.23C434.281 370.723 437.771 370.763 441.19 371.35C442.139 371.508 443.078 371.725 444 372C444.306 372.082 444.604 372.193 444.89 372.33Z" fill="#263238"/>
<path d="M441.85 388.61C441.85 388.67 441.07 388.35 439.63 388.03C437.596 387.588 435.498 387.521 433.44 387.83C430.39 388.346 427.422 389.261 424.61 390.55C421.134 392.069 417.769 393.83 414.54 395.82C411.06 397.88 407.74 399.89 404.54 401.42C401.733 402.808 398.777 403.871 395.73 404.59C393.671 405.058 391.561 405.266 389.45 405.21C388.877 405.196 388.306 405.146 387.74 405.06C387.539 405.05 387.341 405.013 387.15 404.95C387.15 404.88 387.98 404.95 389.45 404.95C391.537 404.919 393.614 404.651 395.64 404.15C398.635 403.377 401.538 402.284 404.3 400.89C407.44 399.35 410.73 397.34 414.22 395.27C417.476 393.26 420.879 391.498 424.4 390C427.264 388.713 430.293 387.828 433.4 387.37C435.506 387.091 437.646 387.227 439.7 387.77C440.254 387.92 440.798 388.104 441.33 388.32C441.516 388.392 441.691 388.489 441.85 388.61Z" fill="#263238"/>
<path d="M389 305.75C389 305.92 382.67 304.68 374.94 302.98C367.21 301.28 360.94 299.77 361.01 299.61C361.08 299.45 367.34 300.68 375.07 302.38C382.8 304.08 389 305.59 389 305.75Z" fill="#263238"/>
<path d="M343.51 343.69L338.37 342.57L336.93 349.19L327.38 347.12L328.82 340.49L310.53 336.49L311.92 330.11L332.15 311.89L342.29 314.09L323.79 331.25L330.79 332.77L332.07 326.89L341.32 328.89L340.04 334.78L345.18 335.9L343.51 343.69Z" fill="white"/>
<path d="M347.82 333.44C350.3 322 358.16 316.85 367 318.77C375.84 320.69 380.8 328.66 378.31 340.08C375.82 351.5 367.96 356.68 359.17 354.76C350.38 352.84 345.33 344.86 347.82 333.44ZM368.48 337.94C370.06 330.68 368.38 327.46 365.27 326.78C362.16 326.1 359.27 328.32 357.65 335.58C356.03 342.84 357.76 346.07 360.92 346.76C364.08 347.45 366.9 345.21 368.48 337.94Z" fill="white"/>
<path d="M412 358.6L406.86 357.48L405.42 364.11L395.86 362L397.31 355.37L379.02 351.37L380.41 344.99L400.63 326.77L410.77 329L392.28 346.15L399.28 347.68L400.56 341.79L409.8 343.79L408.52 349.67L413.66 350.79L412 358.6Z" fill="white"/>
<path d="M336.19 368.23L335.68 370.4L325.27 368L328.52 354.12L338.66 356.49L338.15 358.65L330.6 356.88L329.75 360.49L336.45 362.07L335.96 364.19L329.25 362.62L328.35 366.45L336.19 368.23Z" fill="white"/>
<path d="M347.65 373.2L345.77 368.47C345.588 368.445 345.407 368.408 345.23 368.36L342.09 367.63L341.14 371.63L338.56 371.03L341.82 357.14L347.53 358.48C351.18 359.34 353.01 361.73 352.29 364.81C352.107 365.773 351.619 366.651 350.899 367.315C350.179 367.98 349.264 368.395 348.29 368.5L350.42 373.81L347.65 373.2ZM346.9 360.68L343.9 359.97L342.6 365.51L345.6 366.21C347.86 366.74 349.28 365.98 349.69 364.21C350.1 362.44 349.16 361.21 346.9 360.68Z" fill="white"/>
<path d="M362.15 376.6L360.27 371.87C360.088 371.843 359.908 371.806 359.73 371.76L356.6 371L355.6 375.05L353.02 374.44L356.27 360.55L361.99 361.89C365.64 362.75 367.46 365.14 366.74 368.22C366.558 369.183 366.071 370.062 365.351 370.727C364.63 371.392 363.715 371.807 362.74 371.91L364.86 377.22L362.15 376.6ZM361.41 364.08L358.41 363.37L357.11 368.91L360.11 369.61C362.37 370.14 363.78 369.38 364.19 367.61C364.6 365.84 363.67 364.61 361.41 364.08Z" fill="white"/>
<path d="M368.21 370.69C369.21 366.59 373.06 364.3 377.36 365.31C381.66 366.32 384.14 370.08 383.17 374.2C382.2 378.32 378.32 380.6 374.02 379.59C369.72 378.58 367.25 374.8 368.21 370.69ZM380.57 373.59C380.794 372.627 380.727 371.619 380.377 370.693C380.028 369.768 379.412 368.967 378.608 368.392C377.803 367.817 376.846 367.493 375.858 367.462C374.869 367.43 373.894 367.693 373.055 368.216C372.215 368.739 371.55 369.499 371.143 370.401C370.736 371.302 370.605 372.304 370.767 373.279C370.929 374.255 371.377 375.16 372.054 375.881C372.731 376.602 373.607 377.107 374.57 377.33C375.21 377.498 375.878 377.534 376.533 377.435C377.187 377.336 377.815 377.104 378.377 376.754C378.938 376.404 379.423 375.943 379.8 375.398C380.177 374.854 380.439 374.239 380.57 373.59Z" fill="white"/>
<path d="M393.37 383.92L391.49 379.19L390.94 379.08L387.81 378.35L386.86 382.35L384.28 381.75L387.54 367.86L393.25 369.2C396.9 370.06 398.73 372.45 398.01 375.53C397.825 376.492 397.337 377.369 396.617 378.034C395.898 378.698 394.984 379.114 394.01 379.22L396.14 384.53L393.37 383.92ZM392.62 371.39L389.62 370.69L388.32 376.22L391.32 376.93C393.59 377.46 395 376.7 395.41 374.93C395.82 373.16 394.88 371.92 392.62 371.39Z" fill="white"/>
<path d="M348.66 143.24C348.792 143.293 348.919 143.356 349.04 143.43L350.11 144.04C351.457 144.865 352.738 145.795 353.94 146.82C358.392 150.626 361.784 155.517 363.79 161.02C365.153 164.82 365.863 168.823 365.89 172.86C365.92 177.495 365.118 182.099 363.52 186.45C361.78 191.289 359.056 195.716 355.52 199.45C353.655 201.42 351.533 203.129 349.21 204.53C346.809 205.966 344.207 207.035 341.49 207.7C336.128 208.88 330.613 209.201 325.15 208.65C319.86 208.26 314.81 207.57 309.97 207.35C305.397 207.034 300.802 207.409 296.34 208.46C292.456 209.375 288.838 211.179 285.77 213.73C283.252 215.856 281.387 218.65 280.39 221.79C279.604 224.149 279.368 226.656 279.7 229.12C279.914 230.676 280.409 232.18 281.16 233.56C281.69 234.5 282.04 234.95 282.01 234.97C281.664 234.54 281.35 234.085 281.07 233.61C280.271 232.235 279.739 230.722 279.5 229.15C279.122 226.653 279.331 224.102 280.11 221.7C281.099 218.492 282.978 215.631 285.53 213.45C288.63 210.84 292.298 208.991 296.24 208.05C300.739 206.956 305.379 206.554 310 206.86C314.87 207.07 319.93 207.75 325.19 208.13C330.602 208.671 336.066 208.354 341.38 207.19C344.046 206.532 346.6 205.484 348.96 204.08C351.24 202.697 353.326 201.016 355.16 199.08C358.64 195.401 361.322 191.044 363.04 186.28C364.63 181.981 365.439 177.433 365.43 172.85C365.428 168.862 364.752 164.903 363.43 161.14C360.958 154.155 356.252 148.179 350.04 144.14L349.04 143.49L348.66 143.24Z" fill="#263238"/>
<path d="M279.48 17C282.08 24.54 284.69 32.2 285.06 40.16C285.43 48.12 283.22 56.55 277.44 62C270.74 68.36 260.8 69.57 251.61 70.46C258.22 70.69 265.47 72.26 269.43 77.56C273.97 83.63 272.49 92.31 269.43 99.23C266.37 106.15 261.78 112.6 260.53 120.08C265.798 116.744 271.87 114.895 278.103 114.727C284.336 114.559 290.499 116.08 295.939 119.127C301.379 122.174 305.894 126.635 309.006 132.038C312.119 137.441 313.713 143.585 313.62 149.82C319.31 139.09 329.07 130.31 340.76 127.02C352.45 123.73 365.93 126.42 374.67 134.85C371.261 129.934 368.871 124.385 367.642 118.531C366.412 112.677 366.367 106.636 367.51 100.764C368.652 94.8918 370.959 89.3082 374.295 84.3423C377.63 79.3764 381.926 75.1288 386.93 71.85C381.61 76.27 373.29 75.74 367.63 71.76C361.97 67.78 358.75 61.06 357.55 54.25C356.35 47.44 356.94 40.46 357.55 33.57C351.55 41.36 339.12 43.13 331.2 37.31C323.08 31.31 321.03 20.31 319.6 10.31C320.34 20.09 312.85 29.8 303.2 31.57C293.55 33.34 283.11 26.91 280.33 17.51" class="bg"/>
<path d="M343.68 137.57C342.97 142.28 344.28 147.1 345.74 151.63C345.972 152.506 346.404 153.317 347 154C347.302 154.339 347.698 154.582 348.137 154.697C348.576 154.813 349.04 154.797 349.47 154.65C349.84 154.435 350.162 154.147 350.417 153.803C350.671 153.459 350.853 153.067 350.95 152.65C351.551 150.896 351.859 149.054 351.86 147.2C353.35 148.3 354.96 149.45 356.86 149.54C358.76 149.63 360.75 148.12 360.46 146.29C360.177 145.272 359.561 144.377 358.71 143.75L348.82 134.62L343.75 137.57" fill="url(#paint4_linear_73_3)"/>
<path d="M290.88 42.4C290.88 42.4 264.57 61.82 272.62 92.87L275.27 93.2L284.56 83.58L297.36 101.36L295.58 83.23L301.06 87.23L310.45 67.61C310.45 67.61 296.45 57.61 298.45 47.82C298.49 47.78 290.26 47.32 290.88 42.4Z" fill="url(#paint5_linear_73_3)"/>
<path d="M280.64 108C281.984 116.138 285.978 123.604 292 129.24L307.62 119.83C307.62 119.83 287.32 116.13 280.64 108Z" fill="url(#paint6_linear_73_3)"/>
<path d="M313.37 128.76C313.37 128.76 320.58 140.37 338.89 139.76C351.89 139.32 360.28 122.76 357.04 106.93L346.44 114.93L342.51 112.37V120.73C342.51 120.73 338.24 126.9 332.72 123.42C332.74 123.42 327.94 133.62 313.37 128.76Z" fill="url(#paint7_linear_73_3)"/>
<path d="M320.12 39.05C319.5 39.32 332.63 54.79 332.74 64.05C332.74 64.05 337.07 55.6 345.9 55.24C345.9 55.24 346.22 47.92 353.35 49.45C353.35 49.43 338.12 31.29 320.12 39.05Z" fill="url(#paint8_linear_73_3)"/>
<path d="M362.81 69.31C362.81 69.31 369.02 80.21 368.81 91.31C368.81 91.31 359.86 82.1 352.63 88.58L350.82 84.21C350.82 84.21 355.09 83.36 355.07 78.21C355.05 73.06 350 70.05 350 70.05C350 70.05 359.79 78.26 362.81 69.31Z" fill="url(#paint9_linear_73_3)"/>
<path d="M309.29 96.09C309.29 96.23 297.89 99.09 283.75 102.51C269.61 105.93 258.12 108.51 258.09 108.42C258.06 108.33 269.49 105.42 283.63 102C297.77 98.58 309.26 96 309.29 96.09Z" fill="#263238"/>
<path d="M312.29 78C312.24 78.13 306.09 76 298.54 73.29C290.99 70.58 284.92 68.29 284.97 68.1C285.02 67.91 291.17 70.1 298.72 72.81C306.27 75.52 312.34 77.87 312.29 78Z" fill="#263238"/>
<path d="M303.28 10.52C303.42 10.52 308.21 23.98 313.99 40.69C319.77 57.4 324.34 71 324.2 71C324.06 71 319.27 57.55 313.5 40.84C307.73 24.13 303.15 10.57 303.28 10.52Z" fill="#263238"/>
<path d="M341.38 49.33C341.45 50.3305 341.42 51.3355 341.29 52.33C341.15 54.15 340.87 56.67 340.41 59.43C339.95 62.19 339.41 64.66 338.95 66.43C338.754 67.4009 338.459 68.3491 338.07 69.26C338.173 68.2754 338.346 67.2995 338.59 66.34C338.96 64.55 339.44 62.08 339.9 59.34C340.36 56.6 340.69 54.1 340.9 52.29C340.979 51.2919 341.139 50.3019 341.38 49.33Z" fill="#263238"/>
<path d="M379.5 51.23C379.57 51.36 370.82 56.6 359.95 62.94C349.08 69.28 340.22 74.32 340.15 74.19C340.08 74.06 348.82 68.83 359.69 62.49C370.56 56.15 379.42 51.11 379.5 51.23Z" fill="#263238"/>
<path d="M379.6 99.87C379.115 99.886 378.629 99.8525 378.15 99.77C377.22 99.66 375.87 99.5 374.22 99.27C370.9 98.82 366.33 98.13 361.29 97.27C356.25 96.41 351.72 95.51 348.45 94.81C346.81 94.47 345.45 94.17 344.58 93.95C344.1 93.8724 343.631 93.7416 343.18 93.56C343.665 93.5867 344.146 93.6536 344.62 93.76L348.52 94.45L361.38 96.76L374.27 98.92L378.18 99.57C378.662 99.6244 379.137 99.7249 379.6 99.87Z" fill="#263238"/>
<path d="M365.14 143.05C365.03 143.15 357.41 134.85 348.14 124.51C338.87 114.17 331.39 105.7 331.5 105.61C331.61 105.52 339.23 113.82 348.5 124.16C357.77 134.5 365.25 143 365.14 143.05Z" fill="#263238"/>
<path d="M304.51 139.34C304.586 138.946 304.71 138.563 304.88 138.2C305.14 137.47 305.55 136.43 306.07 135.2C307.07 132.65 308.6 129.14 310.33 125.3C312.06 121.46 313.71 118.01 314.93 115.54C315.55 114.31 316.06 113.31 316.42 112.63C316.585 112.272 316.793 111.936 317.04 111.63C316.93 112.017 316.783 112.392 316.6 112.75L315.27 115.75C314.08 118.37 312.52 121.75 310.81 125.56C309.1 129.37 307.58 132.78 306.41 135.4C305.88 136.58 305.41 137.57 305.06 138.4C304.912 138.733 304.728 139.048 304.51 139.34Z" fill="#263238"/>
<path d="M312.26 89C312.26 88.91 313.06 88.83 314.26 88.35C315.805 87.7406 317.142 86.6987 318.111 85.349C319.079 83.9993 319.638 82.3991 319.72 80.74C319.79 79.47 319.61 78.67 319.72 78.66C320.023 79.3129 320.157 80.0316 320.11 80.75C320.132 82.5073 319.592 84.2256 318.568 85.6541C317.545 87.0825 316.091 88.1463 314.42 88.69C313.739 88.9769 312.995 89.0837 312.26 89Z" fill="#263238"/>
<path d="M320.55 103.2C320.47 103.2 320.9 102.49 321.13 101.27C321.449 99.7058 321.155 98.0787 320.308 96.7254C319.461 95.3721 318.126 94.3963 316.58 94C315.4 93.66 314.58 93.75 314.58 93.66C315.255 93.4537 315.975 93.4537 316.65 93.66C317.491 93.825 318.289 94.1615 318.994 94.6486C319.7 95.1356 320.297 95.7627 320.749 96.4908C321.201 97.2188 321.499 98.0323 321.623 98.8803C321.747 99.7284 321.695 100.593 321.47 101.42C321.342 102.09 321.023 102.708 320.55 103.2Z" fill="#263238"/>
<path d="M340.05 94.72C340.05 94.8 339.17 94.47 337.74 94.3C335.88 94.0866 333.997 94.3268 332.25 95C330.516 95.7057 328.982 96.8249 327.78 98.26C326.85 99.37 326.46 100.19 326.38 100.15C326.583 99.3586 326.962 98.6235 327.49 98C328.657 96.4282 330.239 95.2129 332.058 94.4904C333.878 93.7679 335.863 93.5669 337.79 93.91C338.594 94.0087 339.366 94.2854 340.05 94.72Z" fill="#263238"/>
<path d="M339.52 88.88C338.922 88.9173 338.326 88.7856 337.8 88.5C336.473 87.9009 335.39 86.8674 334.73 85.57C334.088 84.2608 333.918 82.7699 334.25 81.35C334.33 80.7592 334.584 80.2057 334.98 79.76C335.06 79.76 334.76 80.39 334.61 81.42C334.407 82.7563 334.612 84.1228 335.2 85.34C335.829 86.5423 336.805 87.5281 338 88.17C338.88 88.67 339.53 88.79 339.52 88.88Z" fill="#263238"/>
<path d="M333.62 76.3C333.252 76.7231 332.816 77.0815 332.33 77.36C331.226 78.1834 329.92 78.6915 328.55 78.83C327.845 78.8726 327.141 78.7363 326.503 78.4339C325.865 78.1314 325.313 77.6726 324.9 77.1C324.3 76.15 324.51 75.42 324.55 75.45C324.693 75.9569 324.912 76.4391 325.2 76.88C325.602 77.3622 326.112 77.743 326.689 77.9914C327.266 78.2399 327.893 78.349 328.52 78.31C329.805 78.1614 331.041 77.7312 332.14 77.05C332.593 76.7269 333.092 76.474 333.62 76.3Z" fill="#263238"/>
<g opacity="0.3">
<path d="M343.54 138.85C345.627 137.883 347.572 136.635 349.32 135.14L351.17 136.85C348.65 138.66 345.73 140.36 343.61 142.63C343.469 141.375 343.445 140.109 343.54 138.85Z" fill="black"/>
</g>
<path d="M349.87 134.54C349.094 135.717 348.083 136.72 346.901 137.488C345.719 138.255 344.391 138.77 343 139C343 138.85 344.72 138.29 346.59 137.06C348.46 135.83 349.75 134.44 349.87 134.54Z" fill="#263238"/>
<path d="M345.87 134.79C345.532 135.005 345.174 135.186 344.8 135.33C344.374 135.528 343.936 135.702 343.49 135.85C342.907 136.071 342.313 136.261 341.71 136.42C340.146 136.854 338.546 137.148 336.93 137.3C334.949 137.465 332.957 137.442 330.98 137.23C329.004 136.979 327.055 136.544 325.16 135.93C323.619 135.399 322.13 134.73 320.71 133.93C320.09 133.62 319.58 133.26 319.11 132.93C318.706 132.691 318.321 132.42 317.96 132.12C317.626 131.897 317.318 131.639 317.04 131.35C317.11 131.27 318.45 132.35 320.89 133.57C322.312 134.294 323.79 134.903 325.31 135.39C329.046 136.588 332.979 137.047 336.89 136.74C338.484 136.612 340.066 136.358 341.62 135.98C344.27 135.41 345.82 134.69 345.87 134.79Z" fill="#FAFAFA"/>
<path d="M346.45 151.25C345.716 150.078 345.258 148.755 345.11 147.38C344.803 146.031 344.803 144.629 345.11 143.28C345.27 143.28 345.26 145.1 345.64 147.28C346.02 149.46 346.59 151.19 346.45 151.25Z" fill="#FAFAFA"/>
<path d="M290.68 124.67C290.044 124.287 289.471 123.808 288.98 123.25C286.436 120.719 284.366 117.752 282.87 114.49C282.521 113.833 282.268 113.129 282.12 112.4C282.27 112.33 283.58 115.4 285.96 118.84C288.34 122.28 290.79 124.56 290.68 124.67Z" fill="#FAFAFA"/>
<path d="M281.29 57.78C281.37 57.84 280.36 59.34 279.03 61.92C275.552 68.6619 273.699 76.1241 273.62 83.71C273.62 86.62 273.77 88.41 273.68 88.42C273.562 88.0128 273.492 87.5933 273.47 87.17C273.335 86.0214 273.262 84.8664 273.25 83.71C273.19 79.8896 273.627 76.0776 274.55 72.37C275.474 68.6641 276.869 65.0917 278.7 61.74C279.42 60.47 280.04 59.46 280.52 58.74C280.74 58.392 280.998 58.0699 281.29 57.78Z" fill="#FAFAFA"/>
<path d="M288.65 49.1C288.74 49.21 288.12 49.88 287.25 50.59C286.38 51.3 285.61 51.78 285.52 51.67C285.43 51.56 286.06 50.89 286.92 50.18C287.78 49.47 288.56 49 288.65 49.1Z" fill="#FAFAFA"/>
<path d="M309.09 294.64C309.319 294.82 309.51 295.045 309.65 295.3C310.08 296.033 310.266 296.884 310.18 297.73C310.022 299.065 309.419 300.308 308.47 301.26C307.264 302.542 305.807 303.564 304.19 304.26C302.23 305.121 300.081 305.465 297.95 305.26C295.492 304.97 293.185 303.922 291.35 302.26C289.36 300.376 288.097 297.852 287.78 295.13C287.427 292.234 287.866 289.296 289.05 286.63C290.218 283.993 291.794 281.557 293.72 279.41C295.54 277.31 297.44 275.41 298.96 273.41C300.462 271.563 301.532 269.404 302.09 267.09C302.653 264.604 302.527 262.011 301.725 259.592C300.924 257.172 299.476 255.018 297.54 253.36C296.69 252.65 295.784 252.012 294.83 251.45C295.863 251.879 296.822 252.47 297.67 253.2C300.06 255.162 301.743 257.852 302.46 260.86C302.942 262.937 302.963 265.094 302.52 267.18C301.964 269.565 300.877 271.793 299.34 273.7C297.8 275.75 295.9 277.64 294.11 279.7C292.225 281.815 290.68 284.211 289.53 286.8C288.382 289.378 287.954 292.218 288.29 295.02C288.581 297.63 289.781 300.055 291.68 301.87C293.437 303.466 295.644 304.479 298 304.77C300.059 304.989 302.139 304.687 304.05 303.89C307.53 302.42 309.82 299.89 309.98 297.7C310.077 296.892 309.931 296.074 309.56 295.35C309.3 294.86 309.06 294.66 309.09 294.64Z" fill="#263238"/>
<path d="M106.55 427.8C109.49 414.09 126.28 314.59 126.28 314.59C126.28 314.59 114.17 316.51 111.73 320.85C109 325.62 96 398.93 94.54 423.8C93.345 423.71 92.145 423.71 90.95 423.8C87.9052 423.96 85.0133 425.184 82.78 427.26C81.5206 428.575 80.6502 430.212 80.2654 431.992C79.8805 433.771 79.9964 435.622 80.6 437.34C81.2937 439.143 82.5086 440.7 84.09 441.81C83.9 443.94 84.58 446.55 86.25 447.64C87.2222 448.256 88.3555 448.568 89.5059 448.538C90.6562 448.508 91.7716 448.136 92.71 447.47C92.9151 448.119 93.301 448.696 93.8226 449.134C94.3441 449.572 94.9796 449.852 95.6546 449.941C96.3295 450.03 97.0159 449.925 97.6333 449.638C98.2506 449.351 98.7733 448.894 99.14 448.32C99.94 450.18 102.56 450.32 104.45 449.66C106.216 448.969 107.781 447.848 109.004 446.399C110.226 444.949 111.067 443.217 111.45 441.36C111.8 439.504 111.772 437.597 111.371 435.752C110.969 433.907 110.2 432.162 109.11 430.62C108.365 429.587 107.506 428.641 106.55 427.8Z" fill="url(#paint10_linear_73_3)"/>
<g opacity="0.3">
<path d="M109 413.53C101.84 400.95 98.19 387.53 103.62 368.07C107.5 354.12 115.24 339.85 122.36 327.24" fill="black"/>
</g>
<path d="M105.08 440.27C105.398 440.047 105.693 439.793 105.96 439.51C106.298 439.114 106.539 438.645 106.664 438.14C106.789 437.635 106.794 437.108 106.68 436.6C106.472 435.865 106.053 435.208 105.476 434.709C104.898 434.209 104.187 433.89 103.43 433.79C102.487 433.698 101.536 433.854 100.672 434.241C99.8074 434.629 99.0588 435.235 98.5 436C97.3367 437.537 96.6892 439.403 96.65 441.33C96.5931 442.908 96.8868 444.479 97.51 445.93C98.125 447.258 98.9792 448.461 100.03 449.48C100.03 449.48 99.93 449.48 99.76 449.32C99.5143 449.154 99.2864 448.963 99.08 448.75C98.2837 447.986 97.636 447.08 97.17 446.08C96.4773 444.587 96.1352 442.955 96.17 441.31C96.1901 439.273 96.8631 437.296 98.09 435.67C98.71 434.843 99.5356 434.193 100.485 433.784C101.434 433.376 102.473 433.222 103.5 433.34C104.342 433.464 105.128 433.835 105.758 434.406C106.389 434.978 106.835 435.724 107.04 436.55C107.149 437.108 107.122 437.684 106.96 438.229C106.798 438.774 106.506 439.272 106.11 439.68C105.897 439.895 105.65 440.074 105.38 440.21C105.19 440.26 105.08 440.29 105.08 440.27Z" fill="#263238"/>
<path d="M82.93 441.16C83.2754 441.313 83.6096 441.49 83.93 441.69C84.8262 442.141 85.8004 442.416 86.8 442.5C88.2703 442.64 89.7497 442.352 91.06 441.67C91.836 441.281 92.5184 440.728 93.06 440.05C93.3355 439.699 93.5362 439.295 93.6497 438.863C93.7632 438.432 93.7871 437.981 93.72 437.54C93.3634 435.925 92.5185 434.459 91.3 433.34C90.2979 432.375 89.1012 431.635 87.79 431.17L87.18 430.95L87.81 430.79C89.3734 430.349 90.8958 429.773 92.36 429.07C92.0291 429.371 91.6549 429.62 91.25 429.81C90.1907 430.393 89.0662 430.85 87.9 431.17V430.79C89.282 431.245 90.5481 431.996 91.61 432.99C92.2297 433.567 92.771 434.222 93.22 434.94C93.7241 435.705 94.0646 436.567 94.22 437.47C94.2962 437.979 94.2672 438.498 94.1347 438.995C94.0023 439.492 93.7692 439.957 93.45 440.36C92.8643 441.089 92.1273 441.683 91.29 442.1C89.8937 442.801 88.3197 443.069 86.77 442.87C85.7329 442.751 84.7337 442.41 83.84 441.87C83.6015 441.728 83.3771 441.564 83.17 441.38C83.0033 441.247 82.9233 441.173 82.93 441.16Z" fill="#263238"/>
<path d="M92.05 441.33C92.22 441.39 91.62 442.82 91.85 444.61C92.1132 445.681 92.4472 446.733 92.85 447.76C91.98 446.96 91.4472 445.859 91.36 444.68C91.2473 444.104 91.2502 443.511 91.3687 442.936C91.4871 442.361 91.7187 441.815 92.05 441.33Z" fill="#263238"/>
<path d="M99.42 434.31C99.327 433.883 99.172 433.472 98.96 433.09C98.711 432.72 98.365 432.426 97.96 432.24C97.4479 432.025 96.8814 431.976 96.34 432.1C95.3172 432.357 94.4156 432.961 93.79 433.81C93.28 434.46 93.03 434.92 92.96 434.88C92.89 434.84 93.03 434.34 93.49 433.6C93.7895 433.1 94.1863 432.665 94.657 432.322C95.1277 431.978 95.6626 431.733 96.23 431.6C96.882 431.452 97.5648 431.526 98.17 431.81C98.6537 432.051 99.0516 432.435 99.31 432.91C99.71 433.74 99.47 434.34 99.42 434.31Z" fill="#263238"/>
<g opacity="0.3">
<path d="M88.23 430.86C89.0383 430.647 89.8881 430.65 90.6951 430.868C91.5021 431.085 92.2381 431.51 92.83 432.1C93.854 430.86 95.261 429.994 96.83 429.64C97.617 429.49 98.4315 429.635 99.119 430.046C99.8066 430.457 100.319 431.106 100.56 431.87C101.135 431.613 101.763 431.495 102.392 431.526C103.021 431.557 103.634 431.736 104.181 432.049C104.728 432.362 105.193 432.8 105.539 433.326C105.884 433.853 106.101 434.454 106.17 435.08C105.28 434.181 104.11 433.613 102.853 433.471C101.596 433.329 100.328 433.621 99.26 434.3C99.2458 433.803 99.076 433.324 98.7746 432.929C98.4731 432.534 98.0552 432.244 97.58 432.1C97.0991 431.972 96.596 431.953 96.1067 432.043C95.6174 432.133 95.1541 432.33 94.75 432.62C93.9453 433.208 93.3049 433.993 92.89 434.9C91.7973 433.004 90.063 431.56 88 430.83" fill="black"/>
</g>
<path d="M84.75 440.6C84.0586 440.273 83.4578 439.782 83 439.17C81.7429 437.75 80.9875 435.955 80.8502 434.063C80.7129 432.172 81.2012 430.287 82.24 428.7C82.6008 428.018 83.1226 427.435 83.76 427C83.83 427.06 83.19 427.67 82.51 428.87C81.6152 430.427 81.2066 432.216 81.3367 434.007C81.4668 435.798 82.1296 437.509 83.24 438.92C84.09 440 84.81 440.53 84.75 440.6Z" fill="white"/>
<path d="M301.61 245.25C300.95 243.34 299.15 241.43 297.21 241.98C297.424 241.333 297.448 240.638 297.28 239.978C297.112 239.317 296.758 238.719 296.261 238.253C295.764 237.787 295.143 237.473 294.473 237.349C293.803 237.224 293.112 237.294 292.48 237.55C292.401 236.395 291.977 235.29 291.264 234.377C290.551 233.465 289.582 232.787 288.48 232.43C286.57 231.83 284.13 232.95 282.6 234.43C280.74 233.903 278.764 233.948 276.93 234.56C275.225 235.172 273.723 236.242 272.588 237.654C271.453 239.066 270.731 240.764 270.5 242.56C270.305 245.604 271.186 248.62 272.99 251.08C274.512 253.175 276.27 255.088 278.23 256.78C267.93 304.87 215.16 313.23 215.16 313.23L220.11 332.59C270.68 320.1 284.61 279.78 288.4 260.84C288.85 260.84 289.29 260.84 289.73 260.84C291.615 260.705 293.454 260.193 295.137 259.334C296.82 258.475 298.314 257.287 299.53 255.84C300.727 254.385 301.544 252.656 301.907 250.807C302.27 248.959 302.168 247.049 301.61 245.25Z" fill="url(#paint11_linear_73_3)"/>
<path d="M294.73 251.68C294.784 251.769 294.821 251.867 294.84 251.97C294.913 252.268 294.933 252.576 294.9 252.88C294.836 253.443 294.635 253.982 294.317 254.451C293.998 254.919 293.57 255.303 293.07 255.57C292.3 255.935 291.439 256.062 290.597 255.935C289.755 255.809 288.969 255.435 288.34 254.86C287.597 254.142 287.056 253.24 286.772 252.247C286.488 251.253 286.47 250.203 286.72 249.2C287.202 247.22 288.306 245.447 289.87 244.14C291.123 243.073 292.605 242.306 294.2 241.9C295.271 241.626 296.383 241.555 297.48 241.69C297.775 241.714 298.067 241.771 298.35 241.86C298.55 241.86 298.65 241.95 298.64 241.96C297.187 241.796 295.716 241.898 294.3 242.26C292.78 242.698 291.374 243.463 290.18 244.5C288.718 245.756 287.687 247.438 287.23 249.31C286.999 250.225 287.009 251.184 287.259 252.094C287.51 253.004 287.993 253.833 288.66 254.5C289.216 255.026 289.914 255.378 290.667 255.511C291.421 255.645 292.197 255.554 292.9 255.25C293.364 255.014 293.767 254.675 294.079 254.259C294.391 253.843 294.604 253.361 294.7 252.85C294.736 252.461 294.746 252.07 294.73 251.68Z" fill="#263238"/>
<path d="M281.4 234C281.4 234 281.5 234 281.69 234C281.969 234.051 282.243 234.124 282.51 234.22C283.492 234.566 284.389 235.118 285.14 235.84C286.272 236.92 287.059 238.312 287.4 239.84C287.605 240.749 287.605 241.691 287.4 242.6C287.288 243.102 287.075 243.577 286.774 243.995C286.474 244.412 286.091 244.765 285.65 245.03C284.85 245.483 283.965 245.766 283.05 245.86C280.752 246.135 278.43 245.605 276.48 244.36L276.76 244.11C277.244 245.217 277.603 246.374 277.83 247.56C277.943 247.994 277.984 248.443 277.95 248.89C277.577 247.306 277.058 245.759 276.4 244.27L276.13 243.69L276.69 244.03C277.88 244.747 279.21 245.201 280.59 245.36C282.229 245.602 283.903 245.33 285.38 244.58C285.763 244.352 286.096 244.048 286.357 243.687C286.618 243.326 286.803 242.915 286.9 242.48C287.085 241.643 287.085 240.777 286.9 239.94C286.598 238.493 285.886 237.164 284.85 236.11C284.149 235.39 283.318 234.81 282.4 234.4C281.78 234.1 281.39 234 281.4 234Z" fill="#263238"/>
<path d="M287.31 240.92C287.471 240.355 287.744 239.828 288.111 239.369C288.479 238.911 288.934 238.53 289.45 238.25C290.42 237.576 291.61 237.293 292.78 237.46C291.732 237.797 290.709 238.208 289.72 238.69C288.19 239.64 287.45 241 287.31 240.92Z" fill="#263238"/>
<path d="M286.53 251.07C286.58 251.07 286.27 251.66 285.35 251.85C284.816 251.945 284.266 251.879 283.77 251.66C283.167 251.371 282.678 250.889 282.38 250.29C282.125 249.766 281.978 249.195 281.947 248.613C281.916 248.031 282.002 247.449 282.2 246.9C282.49 246.08 282.8 245.64 282.86 245.67C282.804 246.122 282.704 246.568 282.56 247C282.294 248.018 282.393 249.097 282.84 250.05C283.09 250.549 283.488 250.958 283.98 251.22C284.382 251.433 284.837 251.524 285.29 251.48C285.723 251.412 286.142 251.274 286.53 251.07Z" fill="#263238"/>
<g opacity="0.3">
<path d="M276.77 244.59C277.119 245.35 277.66 246.006 278.341 246.492C279.022 246.978 279.818 247.277 280.65 247.36C280.339 248.944 280.56 250.586 281.28 252.03C282.1 253.4 283.96 254.26 285.37 253.51C285.537 254.113 285.842 254.668 286.262 255.131C286.682 255.594 287.205 255.952 287.788 256.177C288.371 256.401 288.999 256.486 289.621 256.424C290.243 256.362 290.842 256.155 291.37 255.82C290.107 255.703 288.921 255.158 288.012 254.273C287.102 253.389 286.522 252.22 286.37 250.96C285.976 251.264 285.497 251.436 285 251.452C284.502 251.468 284.013 251.328 283.6 251.05C283.196 250.76 282.863 250.383 282.624 249.947C282.385 249.51 282.247 249.026 282.22 248.53C282.161 247.536 282.361 246.544 282.8 245.65C280.651 246.006 278.446 245.584 276.58 244.46" fill="black"/>
</g>
<path d="M147.66 431.71C150.84 445.19 154.013 458.673 157.18 472.16C152.254 471.453 147.232 472.387 142.89 474.82C141.39 475.67 139.8 477.34 140.61 478.82C141.24 480.02 142.89 480.11 144.24 480.05C154.76 479.6 165.24 480.49 175.82 480.05L175.24 439.05" fill="url(#paint12_linear_73_3)"/>
<path d="M204.7 431.71C201.533 445.19 198.36 458.673 195.18 472.16C200.109 471.452 205.135 472.387 209.48 474.82C210.98 475.67 212.56 477.34 211.76 478.82C211.12 480.02 209.48 480.11 208.13 480.05C197.6 479.6 187.13 480.49 176.55 480.05L177.13 439.05" fill="url(#paint13_linear_73_3)"/>
<g opacity="0.3">
<path d="M149.88 441.13L151.19 446.48C159.79 446.95 168.13 448.25 175.35 446.66L175.28 441.94C175.28 441.94 166.38 441.47 161.28 440.13L163.61 444.4C158.926 443.823 154.321 442.727 149.88 441.13Z" fill="black"/>
</g>
<g opacity="0.3">
<path d="M177 446.58C177 446.58 185.48 448.88 193.66 447.46C200.58 446.27 201.55 445.02 201.55 445.02L203.7 436C203.7 436 194.12 441.47 179.23 438.52L187 441.7H177.08L177 446.58Z" fill="black"/>
</g>
<path d="M243.19 379.84C239.851 373.122 235.708 366.836 230.85 361.12V361.05C233.479 361.596 236.169 361.795 238.85 361.64C234.159 358.152 230.18 353.797 227.13 348.81C223.04 333.72 218.66 318.56 218.57 303.14L126.82 302.43C124.372 320.802 120.125 338.889 114.14 356.43C107.81 375.43 100.66 398.04 113.29 416.65C115.605 419.972 118.497 422.851 121.83 425.15C125.763 429.313 129.98 433.199 134.45 436.78C133.677 434.827 132.913 432.877 132.16 430.93L133.73 431.63C142.712 438.9 153.538 443.53 165 445L163.3 440.93C176.44 443.21 189.79 442.52 201.72 436.93C223.99 426.43 235.72 414 238.48 397.7C239.89 389.44 238.29 382.02 235.81 374.61L243.19 379.84Z" fill="url(#paint14_linear_73_3)"/>
<path d="M212.91 384.37C212.91 384.37 212.78 384.37 212.54 384.37C212.3 384.37 211.94 384.27 211.54 384.16C210.245 383.869 208.972 383.488 207.73 383.02C203.499 381.424 199.655 378.95 196.45 375.76L196.87 375.48C197.31 376.61 197.77 377.78 198.23 378.98C199.07 381.16 199.89 383.26 200.64 385.2L201.21 386.68L200.21 385.45C197.35 381.9 194.87 378.83 193.05 376.56L191.05 373.97C190.795 373.655 190.564 373.321 190.36 372.97C190.664 373.226 190.939 373.514 191.18 373.83L193.33 376.34L200.64 385.1L200.21 385.35C199.46 383.41 198.64 381.35 197.79 379.14C197.32 377.94 196.87 376.76 196.43 375.64L195.99 374.5L196.85 375.37C199.997 378.508 203.736 380.99 207.85 382.67C209.07 383.164 210.315 383.595 211.58 383.96C212.031 384.072 212.475 384.209 212.91 384.37Z" fill="#263238"/>
<path d="M133.65 366.22C133.204 365.479 132.867 364.677 132.65 363.84C131.989 361.851 131.569 359.789 131.4 357.7C131.228 355.612 131.305 353.51 131.63 351.44C131.719 350.574 131.931 349.726 132.26 348.92C132.225 349.778 132.138 350.633 132 351.48C131.781 353.53 131.754 355.595 131.92 357.65C132.095 359.705 132.456 361.74 133 363.73C133.265 364.547 133.482 365.378 133.65 366.22Z" fill="#263238"/>
<path d="M136.72 358.4C136.403 357.839 136.189 357.226 136.09 356.59C135.726 355.093 135.531 353.56 135.51 352.02C135.49 350.482 135.637 348.946 135.95 347.44C136.042 346.806 136.238 346.191 136.53 345.62C136.253 347.743 136.087 349.879 136.03 352.02C136.148 354.157 136.378 356.287 136.72 358.4Z" fill="#263238"/>
<path d="M169.31 417.13C169.123 417.121 168.938 417.087 168.76 417.03C168.4 416.94 167.87 416.83 167.2 416.63C165.296 416.082 163.429 415.414 161.61 414.63C155.538 412.048 150.008 408.343 145.31 403.71L145.7 403.37C145.91 403.65 146.12 403.96 146.34 404.27C148.278 407.092 149.788 410.186 150.82 413.45L151.01 414.05L150.47 413.73C146.551 411.456 143.257 408.247 140.88 404.39C140.207 403.288 139.616 402.138 139.11 400.95C138.94 400.53 138.83 400.2 138.75 399.95C138.7 399.839 138.667 399.721 138.65 399.6C138.881 399.999 139.085 400.413 139.26 400.84C139.812 401.995 140.437 403.114 141.13 404.19C143.554 407.937 146.839 411.05 150.71 413.27L150.36 413.56C149.319 410.361 147.82 407.33 145.91 404.56L145.29 403.67L145.68 403.33C150.331 407.933 155.775 411.66 161.75 414.33C163.549 415.131 165.388 415.839 167.26 416.45C167.92 416.68 168.44 416.82 168.78 416.94C168.963 416.985 169.14 417.049 169.31 417.13Z" fill="#263238"/>
<path d="M122.35 324.06C122.359 324.14 122.359 324.22 122.35 324.3C122.35 324.48 122.35 324.71 122.35 324.98C122.3 325.59 122.19 326.47 122.04 327.61C121.72 329.88 121.12 333.16 120.15 337.14C119.18 341.12 117.81 345.83 116.15 351C114.49 356.17 112.66 361.83 110.97 367.85C109.319 373.472 108.062 379.203 107.21 385C106.556 389.743 106.479 394.548 106.98 399.31C107.336 402.519 108.071 405.674 109.17 408.71C109.59 409.77 109.92 410.6 110.17 411.14L110.44 411.77C110.478 411.839 110.505 411.913 110.52 411.99C110.52 411.99 110.52 411.93 110.39 411.8C110.26 411.67 110.2 411.43 110.07 411.19C109.78 410.66 109.42 409.84 108.98 408.78C107.794 405.749 106.995 402.581 106.6 399.35C106.046 394.556 106.09 389.713 106.73 384.93C107.541 379.092 108.774 373.32 110.42 367.66C112.13 361.66 114.01 355.98 115.65 350.81C117.29 345.64 118.71 340.98 119.72 337.02C120.73 333.06 121.39 329.8 121.72 327.54C121.9 326.41 122.04 325.54 122.12 324.93L122.23 324.25C122.261 324.181 122.301 324.117 122.35 324.06Z" fill="#263238"/>
<path d="M126.25 421.74C126.021 421.576 125.804 421.395 125.6 421.2C125.21 420.83 124.6 420.33 123.84 419.56C121.765 417.457 119.958 415.106 118.46 412.56C116.221 408.77 114.537 404.678 113.46 400.41C112.145 395.182 111.556 389.798 111.71 384.41C111.9 379.041 112.59 373.701 113.77 368.46C114.83 363.63 116.07 359.35 117.18 355.78C118.29 352.21 119.27 349.36 119.95 347.39C120.29 346.44 120.55 345.68 120.75 345.12C120.835 344.851 120.942 344.591 121.07 344.34C121.015 344.618 120.942 344.892 120.85 345.16C120.68 345.72 120.44 346.49 120.14 347.45C119.52 349.45 118.6 352.32 117.53 355.89C116.46 359.46 115.27 363.74 114.24 368.56C113.097 373.776 112.427 379.084 112.24 384.42C112.116 389.758 112.708 395.089 114 400.27C115.037 404.503 116.663 408.569 118.83 412.35C120.286 414.901 122.035 417.273 124.04 419.42C124.72 420.21 125.35 420.72 125.72 421.13C125.915 421.317 126.093 421.521 126.25 421.74Z" fill="white"/>
<path d="M135.63 424.81C133.915 423.709 132.298 422.461 130.8 421.08C129.185 419.838 127.682 418.456 126.31 416.95C128.019 418.055 129.631 419.303 131.13 420.68C132.744 421.927 134.25 423.308 135.63 424.81Z" fill="white"/>
<path d="M99.37 144.06C98.62 144.25 80.14 152.79 83.62 177.3C86.62 198.77 99.37 199.3 99.37 199.3L123.05 178.6C123.05 178.6 105.86 176.77 101.42 164.24C96.91 151.49 99.37 144.06 99.37 144.06Z" fill="#455A64"/>
<path d="M109.72 173.77C109.72 173.87 108.01 173.83 105.36 174.47C101.89 175.28 98.673 176.933 95.9939 179.282C93.3148 181.632 91.2561 184.605 90 187.94C89 190.49 88.84 192.2 88.74 192.18C88.7239 191.777 88.7575 191.374 88.84 190.98C89.0188 189.902 89.2898 188.842 89.65 187.81C90.8392 184.372 92.9013 181.301 95.6343 178.899C98.3673 176.498 101.677 174.847 105.24 174.11C106.309 173.88 107.397 173.75 108.49 173.72C108.9 173.68 109.314 173.697 109.72 173.77Z" fill="#263238"/>
<path d="M102.67 166C102.67 166.1 101.28 165.84 99.07 166C96.1905 166.208 93.4107 167.143 90.9904 168.717C88.5701 170.291 86.5883 172.452 85.23 175C84.23 177 83.86 178.31 83.76 178.28C83.7687 177.939 83.8329 177.601 83.95 177.28C84.2013 176.419 84.5362 175.585 84.95 174.79C86.2589 172.124 88.2637 169.86 90.7526 168.239C93.2415 166.618 96.1221 165.699 99.09 165.58C99.9788 165.539 100.869 165.583 101.75 165.71C102.07 165.759 102.38 165.857 102.67 166Z" fill="#263238"/>
<path d="M84.62 161.65C84.62 161.65 84.62 161.4 84.84 160.98C85.1134 160.393 85.4486 159.836 85.84 159.32C87.1353 157.602 88.9255 156.321 90.97 155.65C93.034 154.988 95.2696 155.109 97.25 155.99C97.8471 156.251 98.4083 156.587 98.92 156.99C99.28 157.26 99.45 157.45 99.43 157.47C99.41 157.49 98.6 156.91 97.11 156.37C95.1894 155.628 93.0737 155.561 91.11 156.18C89.1587 156.83 87.4272 158.011 86.11 159.59C85.11 160.77 84.71 161.69 84.62 161.65Z" fill="#263238"/>
<path d="M94.76 148.34C94.76 148.34 94.28 148.87 93.41 149.81C92.1915 151.139 91.0813 152.564 90.09 154.07C86.7487 159.019 84.8322 164.791 84.5501 170.756C84.2679 176.72 85.6309 182.648 88.49 187.89C89.3404 189.48 90.3133 191.001 91.4 192.44C92.17 193.44 92.63 194 92.6 194.03C92.4598 193.925 92.3323 193.804 92.22 193.67C92 193.42 91.64 193.07 91.22 192.56C90.0587 191.159 89.0309 189.652 88.15 188.06C85.16 182.79 83.7243 176.78 84.0092 170.727C84.2942 164.674 86.2881 158.826 89.76 153.86C90.7931 152.36 91.9613 150.957 93.25 149.67C93.69 149.2 94.08 148.89 94.33 148.67C94.4558 148.539 94.6008 148.428 94.76 148.34Z" fill="#FAFAFA"/>
<path d="M239.61 146.17C240.35 146.35 258.83 154.9 255.35 179.41C252.35 200.88 239.61 201.41 239.61 201.41L215.93 180.72C215.93 180.72 233.11 178.89 237.56 166.36C242.06 153.6 239.61 146.17 239.61 146.17Z" fill="#455A64"/>
<path d="M229.25 175.87C229.647 175.807 230.049 175.79 230.45 175.82C231.543 175.859 232.63 175.993 233.7 176.22C237.265 176.951 240.579 178.599 243.313 181.002C246.047 183.404 248.107 186.478 249.29 189.92C249.65 190.952 249.921 192.012 250.1 193.09C250.188 193.48 250.225 193.88 250.21 194.28C250.1 194.28 249.92 192.6 248.94 190.04C247.689 186.711 245.636 183.741 242.964 181.393C240.292 179.046 237.083 177.392 233.62 176.58C231 175.94 229.24 176 229.25 175.87Z" fill="#263238"/>
<path d="M236.79 168.19C237.091 168.073 237.408 167.999 237.73 167.97C238.593 167.839 239.468 167.792 240.34 167.83C243.252 167.96 246.069 168.906 248.47 170.56C250.874 172.182 252.814 174.401 254.1 177C254.484 177.787 254.796 178.607 255.03 179.45C255.139 179.752 255.2 180.069 255.21 180.39C255.12 180.39 254.79 179.09 253.77 177.17C252.429 174.681 250.513 172.548 248.18 170.95C245.847 169.352 243.138 168.39 240.32 168.16C238.15 168 236.8 168.29 236.79 168.19Z" fill="#263238"/>
<path d="M254.35 163.76C254.27 163.76 253.87 162.88 252.87 161.65C251.554 160.072 249.822 158.894 247.87 158.25C245.907 157.625 243.789 157.692 241.87 158.44C240.38 158.98 239.61 159.62 239.55 159.54C239.49 159.46 239.7 159.33 240.06 159.05C240.574 158.65 241.135 158.315 241.73 158.05C243.715 157.173 245.952 157.052 248.02 157.71C250.062 158.387 251.848 159.671 253.14 161.39C253.534 161.905 253.869 162.461 254.14 163.05C254.26 163.269 254.332 163.511 254.35 163.76Z" fill="#263238"/>
<path d="M241.28 148.39C241.456 148.755 241.594 149.137 241.69 149.53C241.844 149.981 241.964 150.442 242.05 150.91C242.196 151.527 242.309 152.151 242.39 152.78C242.498 153.536 242.564 154.297 242.59 155.06C242.635 155.939 242.635 156.821 242.59 157.7C242.463 159.709 242.128 161.7 241.59 163.64C241.002 165.571 240.211 167.435 239.23 169.2C238.75 169.99 238.32 170.76 237.82 171.42C237.383 172.051 236.909 172.655 236.4 173.23C235.997 173.715 235.566 174.175 235.11 174.61C234.789 174.972 234.438 175.307 234.06 175.61C233.758 175.897 233.422 176.145 233.06 176.35C232.99 176.27 234.35 175.18 236.06 173.03C236.539 172.448 236.986 171.84 237.4 171.21C237.88 170.56 238.29 169.79 238.76 169.01C239.69 167.26 240.45 165.425 241.03 163.53C241.573 161.626 241.928 159.673 242.09 157.7C242.09 156.79 242.2 155.93 242.16 155.11C242.152 154.358 242.105 153.607 242.02 152.86C241.72 150.07 241.17 148.42 241.28 148.39Z" fill="#FAFAFA"/>
<path d="M154.86 160.31C154.86 160.31 151.74 161.2 153.08 148.7L163.79 160.32C163.79 160.32 159.44 153.16 158.27 146.91C158.27 146.91 171.81 159.44 176.51 160.32C181.21 161.2 213.37 162.99 232.12 179.07C250.87 195.15 259.38 210.73 261.42 227.59C264.74 254.92 259.81 278.21 246.86 293.84L246.42 289.38C246.42 289.38 232.57 309.47 211.58 315.28C190.59 321.09 128.51 315.28 128.51 315.28C128.51 315.28 93.68 305.9 81.62 278.66C69.56 251.42 76.26 247.4 76.26 247.4L71.07 252.3C71.07 252.3 69.71 213.08 104.84 185.3C132.53 163.44 154.86 160.31 154.86 160.31Z" fill="url(#paint15_linear_73_3)"/>
<path d="M222.42 310.82C222.42 310.82 222.35 310.88 222.19 310.96L221.48 311.33C220.85 311.65 219.94 312.13 218.72 312.71C216.3 313.87 212.72 315.49 208.17 317.2C202.758 319.252 197.167 320.799 191.47 321.82C188.05 322.435 184.585 322.769 181.11 322.82C177.322 322.885 173.539 322.529 169.83 321.76L170.03 321.3L178.7 327.3L179.75 328.03L178.49 327.76L176.17 327.27L155.53 322.84L155.76 322.42L160.6 327.52L161.16 328.1L160.38 327.91C151.141 325.661 142.194 322.345 133.72 318.03C130.62 316.45 128.25 315.08 126.64 314.11C125.83 313.63 125.23 313.24 124.82 312.98L124.36 312.67C124.25 312.6 124.2 312.57 124.21 312.56L124.38 312.64L124.86 312.91L126.72 313.98C128.34 314.91 130.72 316.24 133.85 317.78C142.341 321.989 151.277 325.232 160.49 327.45L160.26 327.84C158.693 326.2 157.077 324.507 155.41 322.76L154.85 322.18L155.64 322.35L176.28 326.76L178.6 327.26L178.4 327.72L169.74 321.67L168.74 320.94L169.98 321.21C173.65 321.973 177.392 322.332 181.14 322.28C184.593 322.247 188.038 321.933 191.44 321.34C197.113 320.344 202.685 318.842 208.09 316.85C212.67 315.19 216.24 313.61 218.69 312.51L221.48 311.21L222.21 310.88L222.42 310.82Z" fill="#263238"/>
<g opacity="0.3">
<path d="M222.42 310.82C205.56 319.27 186.47 325.12 169.89 321.5L178.55 327.55L155.55 322.63C157.17 324.33 158.79 326.02 160.4 327.72C147.602 324.631 135.376 319.528 124.18 312.6C124.18 312.6 142.44 331.68 163.58 332.7C198.46 334.37 222.42 310.82 222.42 310.82Z" fill="black"/>
</g>
<path d="M105.75 283.94C105.53 283.849 105.322 283.731 105.13 283.59C104.74 283.34 104.13 283 103.42 282.48C101.356 281.042 99.4315 279.415 97.67 277.62C91.7707 271.669 87.6673 264.176 85.83 256L86.34 255.94C86.34 256.06 86.34 256.18 86.34 256.31C86.49 261.67 86.64 266.74 86.78 271.25V272.45L86.3 271.35C84.2895 266.809 82.9909 261.986 82.45 257.05C82.2928 255.655 82.206 254.253 82.19 252.85C82.19 252.36 82.19 251.98 82.19 251.73C82.1772 251.604 82.1772 251.476 82.19 251.35C82.2046 251.476 82.2046 251.604 82.19 251.73C82.19 252.017 82.21 252.387 82.25 252.84C82.25 253.84 82.4 255.23 82.64 257.02C83.2724 261.904 84.6202 266.668 86.64 271.16L86.19 271.26C86.04 266.76 85.87 261.68 85.69 256.33V256L86.21 255.94C87.2036 260.366 88.866 264.615 91.14 268.54C94.2512 273.919 98.4262 278.608 103.41 282.32C104.1 282.87 104.69 283.23 105.06 283.52C105.304 283.636 105.535 283.777 105.75 283.94Z" fill="#263238"/>
<path d="M244.07 259.17C244.07 259.17 244.16 259 244.38 258.71L245.38 257.44C245.77 256.87 246.17 256.12 246.68 255.28L247.34 253.86L247.7 253.09C247.8 252.81 247.91 252.53 248.01 252.24C249.82 247.64 250.91 240.79 250.85 233.24C250.85 232.17 250.85 231.11 250.74 230.09L250.61 228.09L251.25 229.99C251.91 231.99 252.54 233.85 253.14 235.63H252.68C253.532 233.347 253.953 230.926 253.92 228.49C253.894 226.575 253.598 224.673 253.04 222.84C252.519 221.219 251.849 219.649 251.04 218.15C251.04 218.15 251.13 218.24 251.26 218.43C251.39 218.62 251.59 218.89 251.81 219.28C252.45 220.379 252.973 221.542 253.37 222.75C253.985 224.6 254.322 226.531 254.37 228.48C254.445 230.974 254.042 233.459 253.18 235.8L252.94 236.45L252.72 235.79L250.8 230.16L251.3 230.06C251.37 231.11 251.4 232.16 251.41 233.24C251.47 240.84 250.32 247.75 248.41 252.37C248.29 252.66 248.18 252.95 248.07 253.22L247.69 254L246.98 255.42C246.44 256.26 245.98 257 245.59 257.55L244.59 258.77C244.21 259.05 244.08 259.19 244.07 259.17Z" fill="#263238"/>
<path d="M199.8 184.85C199.567 184.872 199.333 184.872 199.1 184.85C198.65 184.85 197.97 184.85 197.1 184.79C194.653 184.654 192.22 184.336 189.82 183.84C181.836 182.213 174.318 178.817 167.82 173.9L168.16 173.51L168.33 173.69C171.61 177.02 174.73 180.2 177.57 183.1L178.12 183.66L177.36 183.5C174.526 182.937 171.817 181.87 169.36 180.35C167.428 179.171 165.668 177.731 164.13 176.07C163.131 174.991 162.237 173.819 161.46 172.57C161.19 172.14 161.02 171.78 160.89 171.57C160.76 171.36 160.7 171.21 160.72 171.21C161.033 171.627 161.324 172.061 161.59 172.51C162.418 173.709 163.341 174.839 164.35 175.89C165.893 177.501 167.65 178.894 169.57 180.03C172.01 181.487 174.687 182.503 177.48 183.03L177.27 183.44L168 174.07L167.83 173.9L168.17 173.51C174.605 178.375 182.019 181.786 189.9 183.51C192.281 184.029 194.693 184.4 197.12 184.62C197.98 184.72 198.65 184.73 199.12 184.78C199.349 184.777 199.577 184.801 199.8 184.85Z" fill="#263238"/>
<path d="M133.71 171.91C133.636 171.959 133.555 171.996 133.47 172.02L132.76 172.28C132.14 172.51 131.19 172.8 130.02 173.28C115.578 178.624 102.802 187.687 92.9846 199.552C83.1674 211.416 76.6564 225.662 74.11 240.85C73.87 242.09 73.77 243.06 73.66 243.72C73.66 244.02 73.57 244.27 73.53 244.47C73.5231 244.556 73.5029 244.64 73.47 244.72C73.47 244.72 73.47 244.63 73.47 244.46C73.47 244.29 73.47 244.01 73.54 243.71C73.63 243.05 73.69 242.06 73.9 240.81C74.4191 237.27 75.1741 233.769 76.16 230.33C77.6064 225.218 79.5281 220.253 81.9 215.5C87.6992 203.784 96.1453 193.578 106.57 185.69C110.795 182.47 115.311 179.651 120.06 177.27C123.257 175.659 126.557 174.262 129.94 173.09C131.13 172.65 132.08 172.4 132.72 172.2L133.44 171.99C133.525 171.948 133.616 171.921 133.71 171.91Z" fill="#FAFAFA"/>
<path d="M88.41 281.37C88.0471 281.068 87.7124 280.733 87.41 280.37C87.09 280.04 86.72 279.62 86.31 279.11C85.9 278.6 85.41 278.04 84.95 277.36C83.8143 275.797 82.7949 274.152 81.9 272.44C80.8124 270.341 79.8961 268.157 79.16 265.91C78.4442 263.653 77.9092 261.342 77.56 259C77.2981 257.088 77.1745 255.16 77.19 253.23C77.19 252.41 77.19 251.66 77.28 251.01C77.3043 250.451 77.3577 249.894 77.44 249.34C77.4768 248.867 77.5571 248.398 77.68 247.94C77.7282 248.412 77.7282 248.888 77.68 249.36C77.68 249.82 77.61 250.36 77.61 251.03C77.61 251.7 77.61 252.41 77.61 253.23C77.6462 255.138 77.8066 257.042 78.09 258.93C78.456 261.238 78.9873 263.518 79.68 265.75C80.408 267.97 81.3004 270.133 82.35 272.22C83.2138 273.925 84.1927 275.568 85.28 277.14C85.72 277.83 86.19 278.41 86.57 278.93C86.95 279.45 87.3 279.93 87.57 280.24C87.8844 280.59 88.1656 280.968 88.41 281.37Z" fill="#FAFAFA"/>
<path d="M96.68 290.75C96.63 290.88 95.68 290.66 94.68 289.96C93.68 289.26 93.12 288.42 93.23 288.34C93.34 288.26 94.03 288.88 94.98 289.53C95.93 290.18 96.73 290.6 96.68 290.75Z" fill="#FAFAFA"/>
<path d="M157.51 161.88C156.071 160.659 154.953 159.103 154.256 157.349C153.558 155.595 153.302 153.696 153.51 151.82C153.739 153.638 154.154 155.427 154.75 157.16C155.502 158.826 156.427 160.408 157.51 161.88Z" fill="#FAFAFA"/>
<g opacity="0.3">
<path d="M148.44 272.71C149.04 271.71 149.65 270.71 150.26 269.71C150.198 270.001 150.207 270.302 150.285 270.589C150.364 270.876 150.509 271.141 150.71 271.36C151.117 271.791 151.598 272.147 152.13 272.41C153.13 272.97 154.45 273.41 155.47 272.87C155.936 272.51 156.281 272.017 156.459 271.456C156.638 270.895 156.642 270.293 156.47 269.73C156.28 268.81 155.86 267.94 155.61 267.03C155.455 266.583 155.39 266.109 155.421 265.637C155.452 265.164 155.578 264.703 155.79 264.28C156.474 263.428 157.451 262.861 158.53 262.69C162.397 261.566 166.433 261.136 170.45 261.42C174.481 261.725 178.341 263.171 181.58 265.59C181.31 264.16 180.04 263.16 178.79 262.41C176.21 260.86 173.343 259.848 170.361 259.434C167.38 259.019 164.345 259.212 161.44 260C158.541 260.83 155.868 262.309 153.626 264.326C151.384 266.343 149.631 268.844 148.5 271.64" fill="black"/>
</g>
<path d="M151.15 267.41C151.529 269.108 152.448 270.638 153.77 271.77C153.982 272.011 154.259 272.186 154.567 272.274C154.875 272.363 155.203 272.361 155.51 272.27C156.16 271.94 156.18 271.02 156.06 270.27C155.698 268.156 154.923 266.135 153.78 264.32" fill="#FAFAFA"/>
<path d="M184.75 267.41C184.377 269.108 183.461 270.639 182.14 271.77C181.926 272.011 181.647 272.185 181.338 272.274C181.028 272.362 180.699 272.361 180.39 272.27C179.74 271.94 179.72 271.02 179.84 270.27C180.201 268.154 180.98 266.132 182.13 264.32" fill="#FAFAFA"/>
<path d="M189.43 271.91C189.11 272.15 187.3 269.91 183.75 267.06C181.678 265.431 179.41 264.067 177 263C174.091 261.71 170.968 260.971 167.79 260.82C164.641 260.651 161.493 261.176 158.57 262.36C156.193 263.35 154.055 264.836 152.3 266.72C149.3 269.98 148.76 272.94 148.35 272.83C148.19 272.83 148.1 272.05 148.35 270.71C148.807 268.826 149.659 267.06 150.85 265.53C152.626 263.232 154.927 261.394 157.56 260.17C160.792 258.696 164.333 258.027 167.88 258.22C171.39 258.383 174.828 259.268 177.98 260.82C180.522 262.072 182.856 263.708 184.9 265.67C188.4 269 189.69 271.74 189.43 271.91Z" fill="#263238"/>
<g opacity="0.3">
<path d="M176.09 284.88C176.25 285.18 175.4 286.02 173.71 286.88C171.476 287.924 169.056 288.512 166.592 288.61C164.128 288.708 161.67 288.314 159.36 287.45C157.61 286.75 156.7 285.98 156.83 285.66C157.12 284.97 161.29 286.26 166.49 286.01C171.69 285.76 175.74 284.21 176.09 284.88Z" fill="black"/>
</g>
<path d="M129.83 211.21C154.679 219.761 181.636 219.996 206.63 211.88C206.63 211.88 201.7 246.95 168.29 248.88C134.88 250.81 129.83 211.21 129.83 211.21Z" fill="#FAFAFA"/>
<path d="M155.29 217.21C154.083 225.419 155.438 233.8 159.17 241.21C160.045 243.296 161.386 245.153 163.09 246.64C163.951 247.371 164.986 247.867 166.095 248.081C167.204 248.295 168.349 248.219 169.42 247.86C171.42 247.03 172.7 245 173.62 243.01C177.62 234.32 178.04 227.23 178.46 217.66C171.12 219.55 163.36 219.2 155.29 217.21Z" fill="#263238"/>
<g opacity="0.3">
<path d="M201.67 230.44C201.8 230.51 201.38 231.67 200.27 233.59C198.625 236.295 196.605 238.752 194.27 240.89C192.691 242.391 190.995 243.765 189.2 245C187.096 246.38 184.874 247.571 182.56 248.56C177.228 250.888 171.431 251.956 165.619 251.68C159.808 251.405 154.138 249.793 149.05 246.97C146.842 245.762 144.744 244.363 142.78 242.79C141.092 241.404 139.517 239.886 138.07 238.25C135.967 235.901 134.209 233.265 132.85 230.42C131.92 228.42 131.61 227.21 131.75 227.15C131.89 227.09 132.56 228.15 133.75 229.92C135.395 232.468 137.302 234.838 139.44 236.99C140.906 238.464 142.473 239.834 144.13 241.09C146.045 242.503 148.071 243.757 150.19 244.84C155.011 247.367 160.327 248.811 165.764 249.07C171.202 249.329 176.63 248.397 181.67 246.34C183.881 245.458 186.017 244.402 188.06 243.18C189.828 242.083 191.518 240.867 193.12 239.54C195.446 237.599 197.567 235.424 199.45 233.05C200.77 231.32 201.49 230.34 201.67 230.44Z" fill="black"/>
</g>
<g opacity="0.3">
<path d="M199.1 206C198.054 205.818 196.977 206.051 196.1 206.65C186.892 211.223 176.545 212.996 166.34 211.75C156.21 210.49 145.79 206.95 138.05 200.29C135.94 201.41 135.41 204.37 136.32 206.57C137.23 208.77 139.21 210.32 141.22 211.57C148.212 215.931 156.169 218.506 164.39 219.07C172.591 219.623 180.828 218.843 188.78 216.76C192.7 215.76 196.78 214.45 199.37 211.33C200.087 210.542 200.538 209.549 200.66 208.49C200.695 207.964 200.562 207.44 200.282 206.993C200.002 206.546 199.589 206.198 199.1 206Z" fill="black"/>
</g>
<path d="M197.79 205.77C198.17 206.3 195.57 209.17 190.04 211.98C186.793 213.608 183.347 214.804 179.79 215.54C170.959 217.393 161.774 216.507 153.46 213C150.107 211.601 146.948 209.776 144.06 207.57C139.17 203.76 137.16 200.44 137.64 200C138.12 199.56 141.07 201.74 146.08 204.49C152.483 208.139 159.587 210.388 166.923 211.09C174.26 211.791 181.661 210.929 188.64 208.56C194.09 206.83 197.35 205.13 197.79 205.77Z" fill="#263238"/>
<path d="M162.64 241.07C162.64 241.07 162.41 240.87 162.08 240.44C161.617 239.836 161.196 239.201 160.82 238.54C159.551 236.363 158.63 234.001 158.09 231.54C157.545 229.076 157.383 226.543 157.61 224.03C157.678 223.27 157.795 222.515 157.96 221.77C158.08 221.25 158.16 220.96 158.2 220.97C158.24 220.98 158.07 222.15 157.98 224.06C157.734 229.027 158.825 233.969 161.14 238.37C162 240.05 162.71 241 162.64 241.07Z" fill="#FAFAFA"/>
<path d="M214.57 209.81C213.529 210.423 212.422 210.916 211.27 211.28C210.18 211.71 208.85 212.23 207.27 212.72C205.69 213.21 203.92 213.86 201.9 214.36C199.88 214.86 197.69 215.52 195.28 215.99C194.08 216.24 192.85 216.54 191.56 216.76L187.56 217.42C181.636 218.296 175.658 218.75 169.67 218.78C163.684 218.764 157.706 218.329 151.78 217.48C149.06 217.02 146.46 216.63 144.08 216.06C142.88 215.79 141.72 215.55 140.62 215.28L137.46 214.42C135.46 213.9 133.66 213.27 132.09 212.76C131.3 212.49 130.57 212.26 129.9 212.02L128.1 211.3C126.949 210.933 125.845 210.433 124.81 209.81C124.9 209.55 129.72 211.36 137.74 213.35L140.89 214.1C141.99 214.35 143.15 214.55 144.34 214.79C146.71 215.31 149.28 215.63 151.98 216.06C157.847 216.809 163.755 217.196 169.67 217.22C175.593 217.194 181.509 216.787 187.38 216L191.32 215.42C192.6 215.23 193.83 214.95 195.02 214.73C197.41 214.32 199.61 213.73 201.62 213.3C203.63 212.87 205.43 212.3 207.02 211.89C208.61 211.48 209.96 211.06 211.02 210.72C212.164 210.281 213.355 209.975 214.57 209.81Z" fill="#263238"/>
<path d="M477 480.07C477 480.21 375 480.33 249.23 480.33C123.46 480.33 21.45 480.21 21.45 480.07C21.45 479.93 123.45 479.81 249.23 479.81C375.01 479.81 477 479.93 477 480.07Z" fill="#263238"/>
<path d="M198.7 153.57L193.28 129.18L206.2 127.85L210.4 106.08L212.27 132.97L199.15 134.28L198.7 153.57Z" fill="url(#paint16_linear_73_3)"/>
<path d="M206.02 156.78L214.38 139.32L222.9 144.69L235.86 133.42L224.15 150.71L215.52 145.23L206.02 156.78Z" fill="url(#paint17_linear_73_3)"/>
<path opacity="0.6" d="M198.7 153.57L193.28 129.18L206.2 127.85L210.4 106.08L212.27 132.97L199.15 134.28L198.7 153.57Z" fill="white"/>
<path opacity="0.6" d="M206.02 156.78L214.38 139.32L222.9 144.69L235.86 133.42L224.15 150.71L215.52 145.23L206.02 156.78Z" fill="white"/>
<defs>
<linearGradient id="paint0_linear_73_3" x1="397.489" y1="433.264" x2="397.489" y2="468.49" gradientUnits="userSpaceOnUse">
<stop stop-color="#4158D0"/>
<stop offset="1" stop-color="#C850C0"/>
</linearGradient>
<linearGradient id="paint1_linear_73_3" x1="42.1546" y1="440.82" x2="42.1546" y2="461.59" gradientUnits="userSpaceOnUse">
<stop stop-color="#4158D0"/>
<stop offset="1" stop-color="#C850C0"/>
</linearGradient>
<linearGradient id="paint2_linear_73_3" x1="57.6209" y1="454.194" x2="57.6209" y2="466.05" gradientUnits="userSpaceOnUse">
<stop stop-color="#4158D0"/>
<stop offset="1" stop-color="#C850C0"/>
</linearGradient>
<linearGradient id="paint3_linear_73_3" x1="41.3239" y1="463.94" x2="41.3239" y2="472.433" gradientUnits="userSpaceOnUse">
<stop stop-color="#4158D0"/>
<stop offset="1" stop-color="#C850C0"/>
</linearGradient>
<linearGradient id="paint4_linear_73_3" x1="351.985" y1="134.62" x2="351.985" y2="154.773" gradientUnits="userSpaceOnUse">
<stop stop-color="#4158D0"/>
<stop offset="1" stop-color="#C850C0"/>
</linearGradient>
<linearGradient id="paint5_linear_73_3" x1="290.769" y1="42.4" x2="290.769" y2="101.36" gradientUnits="userSpaceOnUse">
<stop stop-color="#4158D0"/>
<stop offset="1" stop-color="#C850C0"/>
</linearGradient>
<linearGradient id="paint6_linear_73_3" x1="294.13" y1="108" x2="294.13" y2="129.24" gradientUnits="userSpaceOnUse">
<stop stop-color="#4158D0"/>
<stop offset="1" stop-color="#C850C0"/>
</linearGradient>
<linearGradient id="paint7_linear_73_3" x1="335.554" y1="106.93" x2="335.554" y2="139.783" gradientUnits="userSpaceOnUse">
<stop stop-color="#4158D0"/>
<stop offset="1" stop-color="#C850C0"/>
</linearGradient>
<linearGradient id="paint8_linear_73_3" x1="336.724" y1="37.1196" x2="336.724" y2="64.05" gradientUnits="userSpaceOnUse">
<stop stop-color="#4158D0"/>
<stop offset="1" stop-color="#C850C0"/>
</linearGradient>
<linearGradient id="paint9_linear_73_3" x1="359.408" y1="69.31" x2="359.408" y2="91.31" gradientUnits="userSpaceOnUse">
<stop stop-color="#4158D0"/>
<stop offset="1" stop-color="#C850C0"/>
</linearGradient>
<linearGradient id="paint10_linear_73_3" x1="103.161" y1="314.59" x2="103.161" y2="450.02" gradientUnits="userSpaceOnUse">
<stop stop-color="#4158D0"/>
<stop offset="1" stop-color="#C850C0"/>
</linearGradient>
<linearGradient id="paint11_linear_73_3" x1="258.64" y1="232.265" x2="258.64" y2="332.59" gradientUnits="userSpaceOnUse">
<stop stop-color="#4158D0"/>
<stop offset="1" stop-color="#C850C0"/>
</linearGradient>
<linearGradient id="paint12_linear_73_3" x1="158.106" y1="431.71" x2="158.106" y2="480.176" gradientUnits="userSpaceOnUse">
<stop stop-color="#4158D0"/>
<stop offset="1" stop-color="#C850C0"/>
</linearGradient>
<linearGradient id="paint13_linear_73_3" x1="194.263" y1="431.71" x2="194.263" y2="480.176" gradientUnits="userSpaceOnUse">
<stop stop-color="#4158D0"/>
<stop offset="1" stop-color="#C850C0"/>
</linearGradient>
<linearGradient id="paint14_linear_73_3" x1="174.75" y1="302.43" x2="174.75" y2="445" gradientUnits="userSpaceOnUse">
<stop stop-color="#4158D0"/>
<stop offset="1" stop-color="#C850C0"/>
</linearGradient>
<linearGradient id="paint15_linear_73_3" x1="166.743" y1="146.91" x2="166.743" y2="317.862" gradientUnits="userSpaceOnUse">
<stop stop-color="#4158D0"/>
<stop offset="1" stop-color="#C850C0"/>
</linearGradient>
<linearGradient id="paint16_linear_73_3" x1="202.775" y1="106.08" x2="202.775" y2="153.57" gradientUnits="userSpaceOnUse">
<stop stop-color="#4158D0"/>
<stop offset="1" stop-color="#C850C0"/>
</linearGradient>
<linearGradient id="paint17_linear_73_3" x1="220.94" y1="133.42" x2="220.94" y2="156.78" gradientUnits="userSpaceOnUse">
<stop stop-color="#4158D0"/>
<stop offset="1" stop-color="#C850C0"/>
</linearGradient>
</defs>
</svg>
