<svg id="visual" viewBox="0 0 1080 480" width="1080" height="480" xmlns="http://www.w3.org/2000/svg" xmlns:xlink="http://www.w3.org/1999/xlink" version="1.1"><path d="M0 398L16.3 394.8C32.7 391.7 65.3 385.3 98 382.8C130.7 380.3 163.3 381.7 196.2 379.8C229 378 262 373 294.8 374.8C327.7 376.7 360.3 385.3 393 386.2C425.7 387 458.3 380 491 376.2C523.7 372.3 556.3 371.7 589 372.3C621.7 373 654.3 375 687 374.2C719.7 373.3 752.3 369.7 785.2 369.8C818 370 851 374 883.8 380.3C916.7 386.7 949.3 395.3 982 399.7C1014.7 404 1047.3 404 1063.7 404L1080 404L1080 481L1063.7 481C1047.3 481 1014.7 481 982 481C949.3 481 916.7 481 883.8 481C851 481 818 481 785.2 481C752.3 481 719.7 481 687 481C654.3 481 621.7 481 589 481C556.3 481 523.7 481 491 481C458.3 481 425.7 481 393 481C360.3 481 327.7 481 294.8 481C262 481 229 481 196.2 481C163.3 481 130.7 481 98 481C65.3 481 32.7 481 16.3 481L0 481Z" fill="#0575e6"></path><path d="M0 390L16.3 390.5C32.7 391 65.3 392 98 396.5C130.7 401 163.3 409 196.2 411.7C229 414.3 262 411.7 294.8 408.3C327.7 405 360.3 401 393 403.3C425.7 405.7 458.3 414.3 491 417.5C523.7 420.7 556.3 418.3 589 415.2C621.7 412 654.3 408 687 408.7C719.7 409.3 752.3 414.7 785.2 416.3C818 418 851 416 883.8 411C916.7 406 949.3 398 982 398.5C1014.7 399 1047.3 408 1063.7 412.5L1080 417L1080 481L1063.7 481C1047.3 481 1014.7 481 982 481C949.3 481 916.7 481 883.8 481C851 481 818 481 785.2 481C752.3 481 719.7 481 687 481C654.3 481 621.7 481 589 481C556.3 481 523.7 481 491 481C458.3 481 425.7 481 393 481C360.3 481 327.7 481 294.8 481C262 481 229 481 196.2 481C163.3 481 130.7 481 98 481C65.3 481 32.7 481 16.3 481L0 481Z" fill="#0b56c1"></path><path d="M0 421L16.3 424.3C32.7 427.7 65.3 434.3 98 437.7C130.7 441 163.3 441 196.2 440.8C229 440.7 262 440.3 294.8 438.7C327.7 437 360.3 434 393 431.7C425.7 429.3 458.3 427.7 491 429C523.7 430.3 556.3 434.7 589 433C621.7 431.3 654.3 423.7 687 419.5C719.7 415.3 752.3 414.7 785.2 416.2C818 417.7 851 421.3 883.8 425.7C916.7 430 949.3 435 982 435C1014.7 435 1047.3 430 1063.7 427.5L1080 425L1080 481L1063.7 481C1047.3 481 1014.7 481 982 481C949.3 481 916.7 481 883.8 481C851 481 818 481 785.2 481C752.3 481 719.7 481 687 481C654.3 481 621.7 481 589 481C556.3 481 523.7 481 491 481C458.3 481 425.7 481 393 481C360.3 481 327.7 481 294.8 481C262 481 229 481 196.2 481C163.3 481 130.7 481 98 481C65.3 481 32.7 481 16.3 481L0 481Z" fill="#09389d"></path><path d="M0 440L16.3 440C32.7 440 65.3 440 98 442.2C130.7 444.3 163.3 448.7 196.2 448.8C229 449 262 445 294.8 444C327.7 443 360.3 445 393 446.3C425.7 447.7 458.3 448.3 491 447.3C523.7 446.3 556.3 443.7 589 442.3C621.7 441 654.3 441 687 443C719.7 445 752.3 449 785.2 450.8C818 452.7 851 452.3 883.8 452.8C916.7 453.3 949.3 454.7 982 453.5C1014.7 452.3 1047.3 448.7 1063.7 446.8L1080 445L1080 481L1063.7 481C1047.3 481 1014.7 481 982 481C949.3 481 916.7 481 883.8 481C851 481 818 481 785.2 481C752.3 481 719.7 481 687 481C654.3 481 621.7 481 589 481C556.3 481 523.7 481 491 481C458.3 481 425.7 481 393 481C360.3 481 327.7 481 294.8 481C262 481 229 481 196.2 481C163.3 481 130.7 481 98 481C65.3 481 32.7 481 16.3 481L0 481Z" fill="#021b79"></path></svg>