<?xml version="1.0" ?><svg viewBox="0 0 512 512" xmlns="http://www.w3.org/2000/svg"><title/><g id="Irrigation"><path d="M367.94,334.64q1.17.09,2.34.09a34.28,34.28,0,0,0,34.23-35.47l-.05-1.7-1.7-.21a34.24,34.24,0,0,0-34.82,18.5v-12l.23-1.34A26.89,26.89,0,0,0,342,271.05l-1.7,0-.29,1.68a26.88,26.88,0,0,0,23.94,31.34v54.74a47.63,47.63,0,0,0-54.1-28.36l-1.67.36.09,1.7A47.66,47.66,0,0,0,363.94,377v18H262.68V334.64q1.17.09,2.34.09a34.28,34.28,0,0,0,34.23-35.47l-.06-1.7-1.69-.21a34.24,34.24,0,0,0-34.82,18.5v-12l.23-1.34a26.89,26.89,0,0,0-26.18-31.46l-1.7,0-.29,1.68a26.88,26.88,0,0,0,23.94,31.34v54.74a47.64,47.64,0,0,0-54.11-28.36l-1.66.36.09,1.7A47.66,47.66,0,0,0,258.68,377v18h-103V334.64q1.17.09,2.34.09a34.28,34.28,0,0,0,34.23-35.47l-.06-1.7-1.69-.21a34.24,34.24,0,0,0-34.82,18.5v-12l.23-1.34a26.89,26.89,0,0,0-26.18-31.46l-1.7,0-.29,1.68a26.88,26.88,0,0,0,23.94,31.34v54.74a47.64,47.64,0,0,0-54.11-28.36l-1.66.36.09,1.7A47.66,47.66,0,0,0,151.68,377v18h-45v4H410.92v-4h-43Zm9.73-25.26a30.18,30.18,0,0,1,22.85-8.23,30.27,30.27,0,0,1-32.29,29.51A30.33,30.33,0,0,1,377.67,309.38ZM328.74,364.2A43.74,43.74,0,0,1,312.38,334a43.71,43.71,0,0,1,51,39A43.62,43.62,0,0,1,328.74,364.2Zm19.9-72.59a22.93,22.93,0,0,1-4.93-16.47,22.87,22.87,0,0,1,20.76,24.74l-.15.19A22.79,22.79,0,0,1,348.64,291.61Zm-76.23,17.77a30.17,30.17,0,0,1,22.85-8.23A30.27,30.27,0,0,1,263,330.66,30.29,30.29,0,0,1,272.41,309.38ZM223.47,364.2A43.77,43.77,0,0,1,207.12,334a43.72,43.72,0,0,1,51,39A43.65,43.65,0,0,1,223.47,364.2Zm19.91-72.59a22.89,22.89,0,0,1-4.93-16.47,22.87,22.87,0,0,1,20.76,24.74,1.39,1.39,0,0,0-.15.19A22.77,22.77,0,0,1,243.38,291.61Zm-78,17.77a30.18,30.18,0,0,1,22.85-8.23A30.27,30.27,0,0,1,156,330.66,30.29,30.29,0,0,1,165.41,309.38ZM116.47,364.2A43.77,43.77,0,0,1,100.12,334a43.72,43.72,0,0,1,51,39A43.65,43.65,0,0,1,116.47,364.2Zm19.91-72.59a22.89,22.89,0,0,1-4.93-16.47,22.87,22.87,0,0,1,20.76,24.74,1.39,1.39,0,0,0-.15.19A22.77,22.77,0,0,1,136.38,291.61Z"/><rect height="17.72" transform="translate(-46.3 151.11) rotate(-20.49)" width="4" x="392.85" y="194.78"/><rect height="12.5" transform="translate(-56.33 157.02) rotate(-20.49)" width="4" x="404.34" y="228.14"/><rect height="17.72" transform="translate(-50.38 128.39) rotate(-20.48)" width="4" x="328.18" y="194.78"/><rect height="12.5" transform="translate(-60.42 134.41) rotate(-20.49)" width="4" x="339.67" y="228.14"/><rect height="17.72" transform="translate(-54.35 106.5) rotate(-20.49)" width="4" x="265.51" y="194.78"/><rect height="12.5" transform="translate(-64.4 112.51) rotate(-20.49)" width="4" x="277" y="228.14"/><rect height="17.72" transform="translate(-58.44 83.88) rotate(-20.49)" width="4" x="200.85" y="194.78"/><rect height="12.5" transform="translate(-68.49 89.87) rotate(-20.49)" width="4" x="212.34" y="228.14"/><rect height="17.72" transform="translate(-62.51 61.21) rotate(-20.48)" width="4" x="136.18" y="194.78"/><rect height="12.5" transform="translate(-72.57 67.21) rotate(-20.49)" width="4" x="147.67" y="228.14"/><rect height="4" transform="translate(-147.17 256.7) rotate(-69.52)" width="12.5" x="105.11" y="232.39"/><rect height="4" transform="translate(-110.9 247.44) rotate(-69.51)" width="17.72" x="113.99" y="201.63"/><rect height="4" transform="translate(20.56 498.4) rotate(-69.52)" width="12.5" x="363.11" y="232.39"/><rect height="4" transform="translate(56.8 489.12) rotate(-69.51)" width="17.72" x="371.99" y="201.63"/><rect height="4" transform="translate(-20.21 439.64) rotate(-69.51)" width="12.5" x="300.44" y="232.39"/><rect height="4" transform="translate(16.07 430.43) rotate(-69.51)" width="17.72" x="309.32" y="201.63"/><rect height="4" transform="translate(-62.24 379.07) rotate(-69.51)" width="12.5" x="235.77" y="232.39"/><rect height="4" transform="translate(-25.97 369.85) rotate(-69.51)" width="17.72" x="244.65" y="201.63"/><rect height="4" transform="translate(-104.27 318.5) rotate(-69.51)" width="12.5" x="171.11" y="232.39"/><rect height="4" transform="translate(-68.01 309.24) rotate(-69.51)" width="17.72" x="179.99" y="201.63"/><path d="M405.79,139.56H339.22L324.14,113H196.53l-15.08,26.57H114.88a10.32,10.32,0,0,0-10.3,10.3v20h18.86l3.56,9.55,3.51-1.31,3.51,1.31,3.57-9.55H188.1l3.57,9.55,3.75-1.4-3-8.15h6.95l-3,8.15,3.75,1.4,3.57-9.55h49.18l3.57,9.55,3.75-1.4-3-8.15H264L260.94,178l3.75,1.4,3.57-9.55h47.18l3.56,9.55,3.75-1.4-3-8.15h8.94l-3,8.15,3.74,1.4,3.57-9.55H380.1l3.57,9.55,3.75-1.4-3.05-8.15h6.95L388.27,178l3.75,1.4,3.57-9.55h20.5v-20A10.32,10.32,0,0,0,405.79,139.56ZM198.86,117h123l12.73,22.44H186.13Zm-84,26.57H405.79a6.32,6.32,0,0,1,6,4.3H108.9A6.32,6.32,0,0,1,114.88,143.56Zm15.63,33.84-2.8-7.51h5.61Zm281.58-11.51H108.58v-14H412.09Z"/></g></svg>